<?xml version="1.0" encoding="utf-8"?>
<!-- Generator: Adobe Illustrator 16.0.0, SVG Export Plug-In . SVG Version: 6.00 Build 0)  -->
<!DOCTYPE svg PUBLIC "-//W3C//DTD SVG 1.1//EN" "http://www.w3.org/Graphics/SVG/1.1/DTD/svg11.dtd">
<svg version="1.1" id="Layer_1" xmlns="http://www.w3.org/2000/svg" xmlns:xlink="http://www.w3.org/1999/xlink" x="0px" y="0px"
	 width="512px" height="512px" viewBox="0 0 512 512" enable-background="new 0 0 512 512" xml:space="preserve">
<g id="_x34_._stethoscope_x2C__medicine_x2C__hospital_x2C__treatment_x2C__disease_1_">
	<g>
		<g>
			<path fill="#5C9EFF" d="M371.987,132.014c8.882,0,15.998,7.198,15.998,15.998s-7.116,15.998-15.998,15.998
				c-8.796,0-15.998-7.198-15.998-15.998S363.191,132.014,371.987,132.014z"/>
		</g>
	</g>
	<g>
		<g>
			<path fill="#94C1FF" d="M363.988,148.012c0-7.417,5.14-13.639,12.014-15.432c-1.288-0.332-2.616-0.566-4.015-0.566
				c-8.796,0-15.998,7.198-15.998,15.998s7.202,15.998,15.998,15.998c1.398,0,2.727-0.234,4.015-0.566
				C369.128,161.651,363.988,155.429,363.988,148.012z"/>
		</g>
	</g>
	<g>
		<g>
			<path fill="#2287FF" d="M380.002,148.012c0,7.417-5.141,13.64-12.014,15.432c1.288,0.332,2.616,0.566,4.015,0.566
				c8.796,0,15.998-7.198,15.998-15.998s-7.202-15.998-15.998-15.998c-1.398,0-2.727,0.234-4.015,0.566
				C374.861,134.373,380.002,140.595,380.002,148.012z"/>
		</g>
	</g>
	<g>
		<g>
			<path fill="#D7E9FF" d="M387.985,148.012c0-8.8-7.116-15.998-15.998-15.998c-8.796,0-15.998,7.198-15.998,15.998
				s7.202,15.998,15.998,15.998C380.869,164.01,387.985,156.812,387.985,148.012z M371.987,108.016
				c22.075,0,39.995,17.92,39.995,39.996c0,22.076-17.92,39.996-39.995,39.996s-39.995-17.92-39.995-39.996
				C331.992,125.936,349.912,108.016,371.987,108.016z"/>
		</g>
	</g>
	<g>
		<g>
			<g>
				<path fill="#FFFFFF" d="M339.99,148.012c0-20.705,15.827-37.555,35.996-39.593c-1.335-0.133-2.632-0.402-3.999-0.402
					c-22.075,0-39.995,17.92-39.995,39.996c0,22.076,17.92,39.996,39.995,39.996c1.367,0,2.664-0.27,3.999-0.402
					C355.817,185.566,339.99,168.717,339.99,148.012z"/>
			</g>
		</g>
	</g>
	<g>
		<g>
			<g>
				<path fill="#94C1FF" d="M403.983,148.012c0,20.705-15.826,37.555-35.995,39.594c1.335,0.133,2.632,0.402,3.999,0.402
					c22.075,0,39.995-17.92,39.995-39.996c0-22.076-17.92-39.996-39.995-39.996c-1.367,0-2.664,0.27-3.999,0.402
					C388.157,110.457,403.983,127.307,403.983,148.012z"/>
			</g>
		</g>
	</g>
	<g>
		<g>
			<path fill="#94C1FF" d="M379.986,196.007v207.977c0,57.432-46.558,103.989-103.988,103.989
				c-57.432,0-103.989-46.558-103.989-103.989v-79.99v-0.398c2.641,0.242,5.281,0.398,7.999,0.398c2.719,0,5.359-0.156,8-0.398
				v0.398v79.99c0,48.636,39.433,87.991,87.991,87.991c48.635,0,87.99-39.355,87.99-87.991V196.007h7.999H379.986z"/>
		</g>
	</g>
	<g>
		<g>
			<path fill="#94C1FF" d="M172.009,323.595c-40.394-4-71.992-38.16-71.992-79.593v-8h15.999v8
				c0,35.355,28.637,63.993,63.993,63.993c35.356,0,63.993-28.638,63.993-63.993v-8H260v8c0,41.511-31.521,75.593-71.993,79.593
				c-2.64,0.242-5.281,0.398-8,0.398C177.29,323.993,174.649,323.837,172.009,323.595z"/>
		</g>
	</g>
	<g>
		<g>
			<rect x="156.011" y="4.027" fill="#5C9EFF" width="15.998" height="15.999"/>
		</g>
	</g>
	<g>
		<g>
			<rect x="188.007" y="4.027" fill="#5C9EFF" width="15.999" height="15.999"/>
		</g>
	</g>
	<g>
		<g>
			<path fill="#D7E9FF" d="M260,28.025v207.977h-15.999V28.025c0-4.398-3.523-7.999-7.999-7.999h-31.996V4.027h31.996
				C249.282,4.027,260,14.745,260,28.025z"/>
		</g>
	</g>
	<g>
		<g>
			<path fill="#D7E9FF" d="M100.017,28.025c0-13.28,10.718-23.998,23.998-23.998h31.997v15.999h-31.997
				c-4.398,0-7.999,3.601-7.999,7.999v207.977h-15.999V28.025z"/>
		</g>
	</g>
	<g id="_x34_._stethoscope_x2C__medicine_x2C__hospital_x2C__treatment_x2C__disease">
		<g>
			<g>
				<path fill="#116FFF" d="M100.017,240.002c-2.21,0-3.999-1.789-3.999-4V28.025c0-2.21,1.789-4,3.999-4c2.211,0,4,1.789,4,4
					v207.977C104.017,238.213,102.228,240.002,100.017,240.002z"/>
			</g>
		</g>
		<g>
			<g>
				<path fill="#116FFF" d="M116.015,240.002c-2.21,0-4-1.789-4-4V28.025c0-2.21,1.789-4,4-4s4,1.789,4,4v207.977
					C120.015,238.213,118.226,240.002,116.015,240.002z"/>
			</g>
		</g>
		<g>
			<g>
				<path fill="#116FFF" d="M100.017,32.024c-2.21,0-3.999-1.789-3.999-4c0-15.436,12.561-27.997,27.997-27.997
					c2.21,0,4,1.789,4,3.999c0,2.211-1.789,4-4,4c-11.03,0-19.998,8.972-19.998,19.998
					C104.017,30.235,102.228,32.024,100.017,32.024z"/>
			</g>
		</g>
		<g>
			<g>
				<path fill="#116FFF" d="M116.015,32.024c-2.21,0-4-1.789-4-4c0-6.617,5.382-11.999,11.999-11.999c2.21,0,4,1.789,4,4
					s-1.789,4-4,4c-2.203,0-4,1.793-4,4C120.015,30.235,118.226,32.024,116.015,32.024z"/>
			</g>
		</g>
		<g>
			<g>
				<path fill="#116FFF" d="M156.011,24.025h-31.997c-2.21,0-4-1.789-4-4s1.789-4,4-4h31.997c2.211,0,4,1.789,4,4
					S158.222,24.025,156.011,24.025z"/>
			</g>
		</g>
		<g>
			<g>
				<path fill="#116FFF" d="M156.011,8.027h-31.997c-2.21,0-4-1.789-4-4c0-2.21,1.789-3.999,4-3.999h31.997c2.211,0,4,1.789,4,3.999
					C160.01,6.238,158.222,8.027,156.011,8.027z"/>
			</g>
		</g>
		<g>
			<g>
				<path fill="#116FFF" d="M172.009,24.025c-2.21,0-3.999-1.789-3.999-4V4.027c0-2.21,1.789-3.999,3.999-3.999
					c2.211,0,4,1.789,4,3.999v15.999C176.009,22.236,174.22,24.025,172.009,24.025z"/>
			</g>
		</g>
		<g>
			<g>
				<path fill="#116FFF" d="M172.009,24.025h-7.999c-2.211,0-4-1.789-4-4s1.789-4,4-4h7.999c2.211,0,4,1.789,4,4
					S174.22,24.025,172.009,24.025z"/>
			</g>
		</g>
		<g>
			<g>
				<path fill="#116FFF" d="M172.009,8.027h-7.999c-2.211,0-4-1.789-4-4c0-2.21,1.789-3.999,4-3.999h7.999c2.211,0,4,1.789,4,3.999
					C176.009,6.238,174.22,8.027,172.009,8.027z"/>
			</g>
		</g>
		<g>
			<g>
				<path fill="#116FFF" d="M156.011,24.025c-2.211,0-4-1.789-4-4V4.027c0-2.21,1.789-3.999,4-3.999s4,1.789,4,3.999v15.999
					C160.01,22.236,158.222,24.025,156.011,24.025z"/>
			</g>
		</g>
		<g>
			<g>
				<path fill="#116FFF" d="M260,240.002c-2.211,0-4-1.789-4-4V28.025c0-2.21,1.789-4,4-4c2.21,0,3.999,1.789,3.999,4v207.977
					C263.999,238.213,262.21,240.002,260,240.002z"/>
			</g>
		</g>
		<g>
			<g>
				<path fill="#116FFF" d="M244.001,240.002c-2.21,0-3.999-1.789-3.999-4V28.025c0-2.21,1.789-4,3.999-4c2.211,0,4,1.789,4,4
					v207.977C248.001,238.213,246.212,240.002,244.001,240.002z"/>
			</g>
		</g>
		<g>
			<g>
				<path fill="#116FFF" d="M260,32.024c-2.211,0-4-1.789-4-4c0-11.026-8.968-19.998-19.998-19.998c-2.211,0-4-1.789-4-4
					c0-2.21,1.789-3.999,4-3.999c15.436,0,27.997,12.561,27.997,27.997C263.999,30.235,262.21,32.024,260,32.024z"/>
			</g>
		</g>
		<g>
			<g>
				<path fill="#116FFF" d="M244.001,32.024c-2.21,0-3.999-1.789-3.999-4c0-2.207-1.797-4-4-4c-2.211,0-4-1.789-4-4s1.789-4,4-4
					c6.616,0,11.999,5.382,11.999,11.999C248.001,30.235,246.212,32.024,244.001,32.024z"/>
			</g>
		</g>
		<g>
			<g>
				<path fill="#116FFF" d="M236.002,24.025h-31.996c-2.211,0-4-1.789-4-4s1.789-4,4-4h31.996c2.211,0,4,1.789,4,4
					S238.213,24.025,236.002,24.025z"/>
			</g>
		</g>
		<g>
			<g>
				<path fill="#116FFF" d="M236.002,8.027h-31.996c-2.211,0-4-1.789-4-4c0-2.21,1.789-3.999,4-3.999h31.996
					c2.211,0,4,1.789,4,3.999C240.002,6.238,238.213,8.027,236.002,8.027z"/>
			</g>
		</g>
		<g>
			<g>
				<path fill="#116FFF" d="M188.007,24.025c-2.21,0-4-1.789-4-4V4.027c0-2.21,1.789-3.999,4-3.999s4,1.789,4,3.999v15.999
					C192.007,22.236,190.218,24.025,188.007,24.025z"/>
			</g>
		</g>
		<g>
			<g>
				<path fill="#116FFF" d="M196.006,24.025h-7.999c-2.21,0-4-1.789-4-4s1.789-4,4-4h7.999c2.21,0,4,1.789,4,4
					S198.217,24.025,196.006,24.025z"/>
			</g>
		</g>
		<g>
			<g>
				<path fill="#116FFF" d="M196.006,8.027h-7.999c-2.21,0-4-1.789-4-4c0-2.21,1.789-3.999,4-3.999h7.999c2.21,0,4,1.789,4,3.999
					C200.006,6.238,198.217,8.027,196.006,8.027z"/>
			</g>
		</g>
		<g>
			<g>
				<path fill="#116FFF" d="M204.006,24.025c-2.211,0-4-1.789-4-4V4.027c0-2.21,1.789-3.999,4-3.999c2.21,0,3.999,1.789,3.999,3.999
					v15.999C208.005,22.236,206.216,24.025,204.006,24.025z"/>
			</g>
		</g>
		<g>
			<g>
				<path fill="#116FFF" d="M180.008,327.992c-46.315,0-83.99-37.684-83.99-83.991c0-2.21,1.789-4,3.999-4c2.211,0,4,1.789,4,4
					c0,41.902,34.09,75.992,75.991,75.992c41.902,0,75.992-34.09,75.992-75.992c0-2.21,1.789-4,4-4c2.21,0,3.999,1.789,3.999,4
					C263.999,290.309,226.323,327.992,180.008,327.992z"/>
			</g>
		</g>
		<g>
			<g>
				<path fill="#116FFF" d="M180.008,311.994c-37.488,0-67.992-30.497-67.992-67.993c0-2.21,1.789-4,4-4s4,1.789,4,4
					c0,33.083,26.911,59.994,59.993,59.994c33.083,0,59.994-26.911,59.994-59.994c0-2.21,1.789-4,3.999-4c2.211,0,4,1.789,4,4
					C248.001,281.497,217.496,311.994,180.008,311.994z"/>
			</g>
		</g>
		<g>
			<g>
				<path fill="#116FFF" d="M116.015,240.002h-15.999c-2.21,0-3.999-1.789-3.999-4c0-2.21,1.789-3.999,3.999-3.999h15.999
					c2.21,0,4,1.789,4,3.999C120.015,238.213,118.226,240.002,116.015,240.002z"/>
			</g>
		</g>
		<g>
			<g>
				<path fill="#116FFF" d="M260,240.002h-15.999c-2.21,0-3.999-1.789-3.999-4c0-2.21,1.789-3.999,3.999-3.999H260
					c2.21,0,3.999,1.789,3.999,3.999C263.999,238.213,262.21,240.002,260,240.002z"/>
			</g>
		</g>
		<g>
			<g>
				<path fill="#116FFF" d="M180.008,271.998c-41.987,0-58.876-32.809-59.571-34.207c-0.984-1.973-0.188-4.366,1.781-5.358
					c1.992-1,4.374-0.195,5.366,1.773c0.617,1.215,15.506,29.793,52.424,29.793c37.098,0,52.268-29.489,52.417-29.786
					c0.992-1.976,3.398-2.757,5.367-1.789c1.977,0.988,2.773,3.39,1.789,5.366C238.885,239.189,221.996,271.998,180.008,271.998z"/>
			</g>
		</g>
		<g>
			<g>
				<path fill="#116FFF" d="M172.009,407.983c-2.21,0-3.999-1.789-3.999-4v-79.99c0-2.211,1.789-4,3.999-4c2.211,0,4,1.789,4,4
					v79.99C176.009,406.194,174.22,407.983,172.009,407.983z"/>
			</g>
		</g>
		<g>
			<g>
				<path fill="#116FFF" d="M188.007,407.983c-2.21,0-4-1.789-4-4v-79.99c0-2.211,1.789-4,4-4s4,1.789,4,4v79.99
					C192.007,406.194,190.218,407.983,188.007,407.983z"/>
			</g>
		</g>
		<g>
			<g>
				<path fill="#116FFF" d="M363.988,407.983c-2.211,0-4-1.789-4-4V196.007c0-2.211,1.789-4,4-4s4,1.789,4,4v207.977
					C367.988,406.194,366.199,407.983,363.988,407.983z"/>
			</g>
		</g>
		<g>
			<g>
				<path fill="#116FFF" d="M379.986,407.983c-2.211,0-4-1.789-4-4V196.007c0-2.211,1.789-4,4-4s4,1.789,4,4v207.977
					C383.986,406.194,382.197,407.983,379.986,407.983z"/>
			</g>
		</g>
		<g>
			<g>
				<path fill="#116FFF" d="M275.998,511.972c-59.549,0-107.988-48.447-107.988-107.988c0-2.21,1.789-3.999,3.999-3.999
					c2.211,0,4,1.789,4,3.999c0,55.135,44.854,99.99,99.989,99.99s99.988-44.855,99.988-99.99c0-2.21,1.789-3.999,4-3.999
					s4,1.789,4,3.999C383.986,463.524,335.546,511.972,275.998,511.972z"/>
			</g>
		</g>
		<g>
			<g>
				<path fill="#116FFF" d="M275.998,495.974c-50.722,0-91.99-41.261-91.99-91.99c0-2.21,1.789-3.999,4-3.999s4,1.789,4,3.999
					c0,46.309,37.676,83.991,83.991,83.991c46.314,0,83.99-37.683,83.99-83.991c0-2.21,1.789-3.999,4-3.999s4,1.789,4,3.999
					C367.988,454.713,326.719,495.974,275.998,495.974z"/>
			</g>
		</g>
		<g>
			<g>
				<path fill="#116FFF" d="M371.987,192.007c-24.255,0-43.995-19.736-43.995-43.995c0-24.259,19.74-43.995,43.995-43.995
					s43.995,19.736,43.995,43.995C415.982,172.271,396.242,192.007,371.987,192.007z M371.987,112.016
					c-19.85,0-35.996,16.146-35.996,35.996s16.146,35.996,35.996,35.996s35.996-16.146,35.996-35.996
					S391.837,112.016,371.987,112.016z"/>
			</g>
		</g>
		<g>
			<g>
				<path fill="#116FFF" d="M371.987,168.01c-11.03,0-19.998-8.972-19.998-19.998s8.968-19.998,19.998-19.998
					s19.998,8.972,19.998,19.998S383.018,168.01,371.987,168.01z M371.987,136.013c-6.616,0-11.999,5.382-11.999,11.999
					c0,6.617,5.383,11.999,11.999,11.999s11.999-5.382,11.999-11.999C383.986,141.396,378.604,136.013,371.987,136.013z"/>
			</g>
		</g>
		<g>
			<g>
				<path fill="#116FFF" d="M371.987,200.006c-2.211,0-3.999-1.789-3.999-3.999V164.01c0-2.21,1.788-3.999,3.999-3.999
					s3.999,1.789,3.999,3.999v31.997C375.986,198.217,374.198,200.006,371.987,200.006z"/>
			</g>
		</g>
	</g>
</g>
</svg>
