<?xml version="1.0" encoding="utf-8"?>
<!-- Generator: Adobe Illustrator 16.0.0, SVG Export Plug-In . SVG Version: 6.00 Build 0)  -->
<!DOCTYPE svg PUBLIC "-//W3C//DTD SVG 1.1//EN" "http://www.w3.org/Graphics/SVG/1.1/DTD/svg11.dtd">
<svg version="1.1" id="Layer_1" xmlns="http://www.w3.org/2000/svg" xmlns:xlink="http://www.w3.org/1999/xlink" x="0px" y="0px"
	 width="512px" height="512px" viewBox="0 0 512 512" enable-background="new 0 0 512 512" xml:space="preserve">
<g id="_x32_5._dental_x2C__chair_x2C__medicine_x2C__hospital_x2C__treatment_x2C__disease_x09__x0A_">
	<g>
		<g>
			<path fill="#ff6673" d="M335.997,427.981c6.64,0,11.999,5.358,11.999,11.998c0,6.641-5.359,11.999-11.999,11.999
				c-6.562,0-11.999-5.358-11.999-11.999C323.998,433.34,329.436,427.981,335.997,427.981z"/>
		</g>
	</g>
	<g>
		<g>
			<path fill="#ff6673" d="M467.982,20.026c4.477,0,7.999,3.601,7.999,7.999s-3.522,8-7.999,8c-4.397,0-7.999-3.602-7.999-8
				S463.585,20.026,467.982,20.026z"/>
		</g>
	</g>
	<g>
		<g>
			<path fill="#94C1FF" d="M475.981,28.025c0-4.398-3.522-7.999-7.999-7.999c-4.397,0-7.999,3.601-7.999,7.999s3.602,8,7.999,8
				C472.459,36.024,475.981,32.423,475.981,28.025z M467.982,4.027c13.28,0,23.998,10.718,23.998,23.998
				s-10.718,23.998-23.998,23.998c-10.396,0-19.279-6.64-22.56-15.998c-0.961-2.477-1.438-5.203-1.438-8s0.477-5.523,1.438-7.999
				C448.703,10.667,457.586,4.027,467.982,4.027z"/>
		</g>
	</g>
	<g>
		<g>
			<path fill="#D7E9FF" d="M467.982,52.022H363.994h-15.998h-8c-4.397,0-7.998-3.602-7.998-7.999c0-4.398,3.601-7.999,7.998-7.999
				h105.427C448.703,45.382,457.586,52.022,467.982,52.022z"/>
		</g>
	</g>
	<g>
		<g>
			<rect x="323.998" y="68.021" fill="#FFFFFF" width="15.998" height="63.993"/>
		</g>
	</g>
	<g>
		<g>
			<path fill="#D7E9FF" d="M363.994,68.021c17.678,0,31.996,14.319,31.996,31.997s-14.318,31.997-31.996,31.997h-23.998V68.021h8
				H363.994z"/>
		</g>
	</g>
	<g opacity="0.2">
		<g>
			<path d="M363.994,68.021h-7.999c17.678,0,31.996,14.319,31.996,31.997s-14.318,31.997-31.996,31.997h7.999
				c17.678,0,31.996-14.319,31.996-31.997S381.672,68.021,363.994,68.021z"/>
		</g>
	</g>
	<g>
		<g>
			<path fill="#D7E9FF" d="M300.001,20.026c-4.397,0-7.999,3.601-7.999,7.999v183.98v23.997v31.997h-15.998V116.016h-63.997v-15.999
				h63.997V28.025c0-13.28,10.795-23.998,23.997-23.998h167.981c-10.396,0-19.279,6.64-22.56,15.999H300.001z"/>
		</g>
	</g>
	<g>
		<g>
			<path fill="#94C1FF" d="M108.018,148.012h103.989v7.999c0,4.398-3.523,7.999-7.999,7.999h-87.991c-4.398,0-8-3.601-8-7.999
				V148.012z"/>
		</g>
	</g>
	<g>
		<g>
			<path fill="#D7E9FF" d="M116.018,156.011v-7.999h-8v7.999c0,4.398,3.602,7.999,8,7.999h7.999
				C119.619,164.01,116.018,160.409,116.018,156.011z"/>
		</g>
	</g>
	<g>
		<g>
			<path fill="#5C9EFF" d="M204.008,156.011v-7.999h7.999v7.999c0,4.398-3.602,7.999-7.999,7.999h-8
				C200.407,164.01,204.008,160.409,204.008,156.011z"/>
		</g>
	</g>
	<g>
		<g>
			<path fill="#D7E9FF" d="M108.018,60.021h103.989v39.996v15.999v31.996H108.018V60.021z M196.009,132.014V76.02h-71.992v55.994
				H196.009z"/>
		</g>
	</g>
	<g>
		<g>
			<rect x="124.017" y="76.02" fill="#94C1FF" width="71.992" height="55.994"/>
		</g>
	</g>
	<g>
		<g>
			<polygon fill="#FFFFFF" points="363.994,252 363.994,267.999 347.996,267.999 347.996,252 347.996,220.004 355.995,220.004 
				363.994,220.004 			"/>
		</g>
	</g>
	<g>
		<g>
			<polygon fill="#D7E9FF" points="315.999,196.007 459.983,196.007 459.983,252 427.987,252 427.987,220.004 419.988,220.004 
				411.988,220.004 411.988,252 395.99,252 395.99,220.004 387.991,220.004 379.992,220.004 379.992,252 363.994,252 
				363.994,220.004 355.995,220.004 347.996,220.004 347.996,252 315.999,252 315.999,236.002 315.999,212.005 			"/>
		</g>
	</g>
	<g>
		<g>
			<polygon fill="#FFFFFF" points="387.991,220.004 395.99,220.004 395.99,252 395.99,267.999 379.992,267.999 379.992,252 
				379.992,220.004 			"/>
		</g>
	</g>
	<g>
		<g>
			<polygon fill="#FFFFFF" points="427.987,220.004 427.987,252 427.987,267.999 411.988,267.999 411.988,252 411.988,220.004 
				419.988,220.004 			"/>
		</g>
	</g>
	<g>
		<g>
			<path fill="#5C9EFF" d="M335.997,427.981c-6.562,0-11.999,5.358-11.999,11.998c0,6.641,5.438,11.999,11.999,11.999
				c6.64,0,11.999-5.358,11.999-11.999C347.996,433.34,342.637,427.981,335.997,427.981z M491.98,507.973H268.004l6.883-15.998
				l13.592-31.755l17.201-40.237h0.078l10.241-23.997h79.991c53.111,0,95.99,42.956,95.99,95.989V507.973z"/>
		</g>
	</g>
	<g>
		<g>
			<g>
				<path fill="#2287FF" d="M395.99,395.985h-7.999c53.111,0,95.989,42.956,95.989,95.989v15.998h8v-15.998
					C491.98,438.941,449.102,395.985,395.99,395.985z"/>
			</g>
		</g>
	</g>
	<g>
		<g>
			<path fill="#D7E9FF" d="M172.011,491.975h102.875l-6.883,15.998H164.012v-7.999C164.012,495.575,167.614,491.975,172.011,491.975
				z"/>
		</g>
	</g>
	<g>
		<g>
			<path fill="#FFFFFF" d="M180.01,491.975h-7.999c-4.397,0-7.999,3.601-7.999,7.999v7.999h7.999v-7.999
				C172.011,495.575,175.613,491.975,180.01,491.975z"/>
		</g>
	</g>
	<g>
		<g>
			<polygon fill="#94C1FF" points="276.004,391.423 260.002,395.985 252.002,419.982 276.004,419.982 292.002,419.982 
				292.002,386.868 			"/>
		</g>
	</g>
	<g>
		<g>
			<path fill="#CCD1D9" d="M196.009,387.985c0.156,0,0.242,0,0.32,0c1.359-0.078,2.718-0.32,4.078-0.641
				c0.164-0.078,0.242,0,0.398-0.078l115.194-35.996v28.716l-23.997,6.882l-15.998,4.555l-16.002,4.562l-8,23.997h24.001h15.998
				h13.678l-17.201,40.237l-0.477-0.242H172.011V375.19l15.194,10.077C189.931,387.103,192.97,387.985,196.009,387.985z"/>
		</g>
	</g>
	<g>
		<g>
			<path fill="#CCD1D9" d="M196.009,387.985c0.156,0,0.242,0,0.32,0c1.359-0.078,2.718-0.32,4.078-0.641
				c0.164-0.078,0.242,0,0.398-0.078l115.194-35.996v28.716l-23.997,6.882l-15.998,4.555l-16.002,4.562l-8,23.997h24.001h15.998
				h13.678l-17.201,40.237l-0.477-0.242H172.011V375.19l15.194,10.077C189.931,387.103,192.97,387.985,196.009,387.985z"/>
		</g>
	</g>
	<g>
		<g>
			<path fill="#D7E9FF" d="M196.009,387.985c0.156,0,0.242,0,0.32,0c1.359-0.078,2.718-0.32,4.078-0.641
				c0.164-0.078,0.242,0,0.398-0.078l115.194-35.996v28.716l-23.997,6.882l-15.998,4.555l-16.002,4.562l-8,23.997h24.001h15.998
				h13.678l-17.201,40.237l-0.477-0.242H172.011V375.19l15.194,10.077C189.931,387.103,192.97,387.985,196.009,387.985z"/>
		</g>
	</g>
	<g>
		<g>
			<polygon fill="#5C9EFF" points="276.004,267.999 172.011,267.999 172.011,336.788 198.571,354.466 204.008,352.786 
				260.002,335.272 292.002,325.274 292.002,325.196 292.002,267.999 			"/>
		</g>
	</g>
	<g>
		<g>
			<polygon fill="#2287FF" points="284.003,267.999 284.003,325.196 284.003,327.773 292.002,325.274 292.002,325.196 
				292.002,267.999 			"/>
		</g>
	</g>
	<g>
		<g>
			<path fill="#ff6975" d="M196.009,387.985c-3.039,0-6.078-0.883-8.804-2.718l-15.194-10.077L19.223,273.279
				c-7.358-4.882-9.358-14.803-4.476-22.161c4.882-7.359,14.881-9.358,22.161-4.398l135.103,90.068l26.56,17.678l5.438-1.68
				l55.994-17.514l32-9.998l27.278-8.562c0.078,0,0.234,0,0.32,0c1.437-0.398,2.874-0.719,4.397-0.719H483.98
				c8.883,0,15.999,7.203,15.999,15.999s-7.116,15.998-15.999,15.998H326.475l-10.476,3.28l-115.194,35.996
				c-0.156,0.078-0.234,0-0.398,0.078c-1.359,0.32-2.719,0.562-4.078,0.641C196.251,387.985,196.165,387.985,196.009,387.985z"/>
		</g>
	</g>
	<g>
		<g>
			<g>
				<polygon fill="#FFFFFF" points="172.011,375.573 172.011,459.978 180.01,459.978 180.01,380.877 				"/>
			</g>
		</g>
	</g>
	<g>
		<g>
			<path fill="#D7E9FF" d="M14.748,259.117c4.882-7.359,14.881-9.358,22.161-4.398l135.103,90.068l26.56,17.678l5.438-1.679
				l55.994-17.514l32-10l27.278-8.561c0.078,0,0.234,0,0.32,0c1.437-0.398,2.874-0.719,4.397-0.719H483.98
				c7.484,0,13.655,5.132,15.429,11.998c0.336-1.289,0.57-2.609,0.57-3.999c0-8.796-7.116-15.999-15.999-15.999H323.998
				c-1.523,0-2.961,0.32-4.397,0.719c-0.086,0-0.242,0-0.32,0l-27.278,8.562l-32,9.998l-55.994,17.514l-5.438,1.68l-26.56-17.678
				L36.909,246.72c-7.28-4.96-17.279-2.96-22.161,4.398c-2.617,3.944-3.195,8.608-2.094,12.857
				C13.083,262.296,13.732,260.647,14.748,259.117z"/>
		</g>
	</g>
	<g>
		<g>
			<polygon fill="#D7E9FF" points="144.233,132.014 160.794,132.014 175.792,76.02 159.232,76.02 			"/>
		</g>
	</g>
	<g>
		<g>
			<rect x="347.996" y="52.022" fill="#94C1FF" width="15.998" height="15.998"/>
		</g>
	</g>
	<g>
		<g>
			<polygon fill="#94C1FF" points="256.002,459.978 240.004,491.975 274.887,491.975 288.479,460.22 			"/>
		</g>
	</g>
	<g>
		<g>
			<path fill="#D7E9FF" d="M164.012,244.001c0,8.882,7.194,15.999,15.998,15.999v7.999h63.993V260
				c8.882,0,15.999-7.117,15.999-15.999H164.012z"/>
		</g>
	</g>
	<g>
		<g>
			<polygon fill="#94C1FF" points="180.01,267.999 172.011,267.999 172.011,336.788 180.01,342.116 			"/>
		</g>
	</g>
	<g>
		<g>
			<rect x="315.999" y="196.007" fill="#FFFFFF" width="8.069" height="55.994"/>
		</g>
	</g>
	<g>
		<g>
			<rect x="451.914" y="196.007" fill="#94C1FF" width="8.069" height="55.994"/>
		</g>
	</g>
	<g>
		<g>
			<rect x="108.018" y="60.021" fill="#FFFFFF" width="8" height="87.99"/>
		</g>
	</g>
	<g>
		<g>
			<rect x="204.008" y="60.021" fill="#94C1FF" width="7.999" height="87.99"/>
		</g>
	</g>
	<g>
		<g>
			<rect x="292.002" y="212.005" fill="#D7E9FF" width="23.997" height="23.997"/>
		</g>
	</g>
	<g id="_x32_5._dental_x2C__chair_x2C__medicine_x2C__hospital_x2C__treatment_x2C__disease">
		<g>
			<g>
				<path fill="#116FFF" d="M491.98,511.972H268.004c-2.21,0-3.999-1.788-3.999-3.999s1.789-3.999,3.999-3.999H491.98
					c2.21,0,3.999,1.788,3.999,3.999S494.19,511.972,491.98,511.972z"/>
			</g>
		</g>
		<g>
			<g>
				<path fill="#116FFF" d="M268.004,511.972c-0.531,0-1.062-0.102-1.577-0.32c-2.031-0.874-2.973-3.226-2.102-5.257l47.995-111.987
					c0.875-2.039,3.233-2.969,5.257-2.102c2.031,0.875,2.969,3.227,2.102,5.257l-47.995,111.988
					C271.027,511.066,269.551,511.972,268.004,511.972z"/>
			</g>
		</g>
		<g>
			<g>
				<path fill="#116FFF" d="M335.997,455.979c-8.819,0-15.998-7.179-15.998-15.999c0-8.818,7.179-15.998,15.998-15.998
					s15.998,7.18,15.998,15.998C351.995,448.8,344.816,455.979,335.997,455.979z M335.997,431.981c-4.413,0-7.999,3.585-7.999,7.998
					c0,4.414,3.586,8,7.999,8s7.999-3.586,7.999-8C343.996,435.566,340.41,431.981,335.997,431.981z"/>
			</g>
		</g>
		<g>
			<g>
				<path fill="#116FFF" d="M266.864,495.974h-94.853c-2.21,0-3.999-1.789-3.999-3.999c0-2.211,1.789-4,3.999-4h94.853
					c2.21,0,3.999,1.789,3.999,4C270.863,494.185,269.074,495.974,266.864,495.974z"/>
			</g>
		</g>
		<g>
			<g>
				<path fill="#116FFF" d="M164.012,503.974c-2.211,0-4-1.789-4-4c0-6.616,5.382-11.999,11.999-11.999c2.211,0,4,1.789,4,4
					c0,2.21-1.789,3.999-4,3.999c-2.203,0-3.999,1.797-3.999,4C168.012,502.185,166.223,503.974,164.012,503.974z"/>
			</g>
		</g>
		<g>
			<g>
				<path fill="#116FFF" d="M260.002,511.972h-95.99c-2.211,0-4-1.788-4-3.999s1.789-3.999,4-3.999h95.99
					c2.21,0,4.003,1.788,4.003,3.999S262.212,511.972,260.002,511.972z"/>
			</g>
		</g>
		<g>
			<g>
				<path fill="#116FFF" d="M164.012,511.972c-2.211,0-4-1.788-4-3.999v-7.999c0-2.211,1.789-4,4-4s4,1.789,4,4v7.999
					C168.012,510.184,166.223,511.972,164.012,511.972z"/>
			</g>
		</g>
		<g>
			<g>
				<path fill="#116FFF" d="M196.009,391.993c-0.125,0-0.25-0.008-0.383-0.016c-3.828-0.07-7.522-1.227-10.709-3.352L16.935,276.639
					c-4.445-2.961-7.468-7.476-8.515-12.718c-1.055-5.241,0-10.569,2.968-15.014c5.921-8.866,18.857-11.468,27.731-5.546
					l160.037,106.684L318.03,312.9c0.242-0.07,0.547-0.133,0.844-0.164c1.812-0.5,3.499-0.742,5.124-0.742H483.98
					c11.03,0,19.998,8.968,19.998,19.998s-8.968,19.997-19.998,19.997H327.053l-125.076,39.09c-0.289,0.086-0.797,0.18-1.094,0.203
					c-1.172,0.375-2.867,0.633-4.5,0.672L196.009,391.993z M28.05,248.001c-4.03,0-7.772,2-10.006,5.343
					c-1.781,2.664-2.414,5.867-1.781,9.006c0.625,3.148,2.445,5.852,5.109,7.633l167.981,111.987
					c1.945,1.297,4.203,1.992,6.539,2.008c0.141-0.016,0.281-0.023,0.398-0.023c0.883-0.023,1.914-0.18,2.984-0.477
					c0.242-0.07,0.711-0.148,0.969-0.172l125.005-39.137c0.391-0.117,0.789-0.18,1.195-0.18H483.98
					c6.617,0,11.999-5.382,11.999-11.998s-5.382-11.999-11.999-11.999H323.998c-1,0-2.055,0.172-3.312,0.539
					c-0.211,0.062-0.453,0.109-0.703,0.141l-120.264,37.582c-1.156,0.344-2.406,0.18-3.414-0.492L34.683,250.017
					C32.707,248.696,30.417,248.001,28.05,248.001z"/>
			</g>
		</g>
		<g>
			<g>
				<path fill="#116FFF" d="M172.011,463.978c-2.21,0-3.999-1.789-3.999-4v-71.984c0-2.21,1.789-3.999,3.999-3.999
					c2.211,0,4,1.789,4,3.999v71.984C176.011,462.188,174.222,463.978,172.011,463.978z"/>
			</g>
		</g>
		<g>
			<g>
				<path fill="#116FFF" d="M280.573,463.978H172.011c-2.21,0-3.999-1.789-3.999-4s1.789-3.999,3.999-3.999h108.562
					c2.211,0,4,1.788,4,3.999S282.784,463.978,280.573,463.978z"/>
			</g>
		</g>
		<g>
			<g>
				<path fill="#116FFF" d="M315.999,383.986c-2.21,0-3.999-1.789-3.999-4v-20.731c0-2.211,1.789-4,3.999-4c2.211,0,4,1.789,4,4
					v20.731C319.999,382.197,318.21,383.986,315.999,383.986z"/>
			</g>
		</g>
		<g>
			<g>
				<path fill="#116FFF" d="M260.002,399.984c-1.742,0-3.343-1.141-3.843-2.897c-0.609-2.125,0.617-4.344,2.742-4.945l55.997-15.998
					c2.133-0.648,4.344,0.625,4.945,2.742c0.609,2.124-0.617,4.343-2.742,4.944l-55.998,15.998
					C260.735,399.938,260.36,399.984,260.002,399.984z"/>
			</g>
		</g>
		<g>
			<g>
				<path fill="#116FFF" d="M252.002,423.981c-0.422,0-0.843-0.062-1.265-0.203c-2.093-0.703-3.226-2.968-2.531-5.062l7.999-23.997
					c0.703-2.094,2.976-3.219,5.061-2.531c2.094,0.703,3.23,2.969,2.531,5.062l-7.999,23.998
					C255.237,422.919,253.674,423.981,252.002,423.981z"/>
			</g>
		</g>
		<g>
			<g>
				<path fill="#116FFF" d="M297.712,423.981h-45.709c-2.21,0-3.999-1.789-3.999-3.999c0-2.211,1.789-4,3.999-4h45.709
					c2.211,0,4,1.789,4,4C301.712,422.192,299.923,423.981,297.712,423.981z"/>
			</g>
		</g>
		<g>
			<g>
				<path fill="#116FFF" d="M276.004,415.982c-2.211,0-4-1.788-4-3.999v-12.569c0-2.211,1.789-3.999,4-3.999
					s3.999,1.788,3.999,3.999v12.569C280.003,414.194,278.215,415.982,276.004,415.982z"/>
			</g>
		</g>
		<g>
			<g>
				<path fill="#116FFF" d="M292.002,415.982c-2.211,0-4-1.788-4-3.999v-17.139c0-2.211,1.789-4,4-4s4,1.789,4,4v17.139
					C296.002,414.194,294.213,415.982,292.002,415.982z"/>
			</g>
		</g>
		<g>
			<g>
				<path fill="#116FFF" d="M244.003,487.975c-0.602,0-1.211-0.133-1.789-0.422c-1.977-0.991-2.773-3.39-1.789-5.366l8-15.998
					c1-1.969,3.39-2.773,5.366-1.789c1.977,0.992,2.773,3.391,1.789,5.366l-7.999,15.999
					C246.878,487.162,245.464,487.975,244.003,487.975z"/>
			</g>
		</g>
		<g>
			<g>
				<path fill="#116FFF" d="M260.002,323.228c-2.211,0-4-1.789-4-4v-12.732c0-2.211,1.789-4,4-4c2.21,0,4.003,1.789,4.003,4v12.732
					C264.005,321.438,262.212,323.228,260.002,323.228z"/>
			</g>
		</g>
		<g>
			<g>
				<path fill="#116FFF" d="M204.008,340.726c-2.211,0-4-1.789-4-4v-12.732c0-2.211,1.789-4,4-4c2.21,0,3.999,1.789,3.999,4v12.732
					C208.007,338.937,206.219,340.726,204.008,340.726z"/>
			</g>
		</g>
		<g>
			<g>
				<path fill="#116FFF" d="M459.983,256c-2.211,0-3.999-1.789-3.999-4v-51.995H319.999V252c0,2.21-1.789,4-4,4
					c-2.21,0-3.999-1.789-3.999-4v-55.994c0-2.211,1.789-4,3.999-4h143.984c2.211,0,4,1.789,4,4V252
					C463.983,254.211,462.194,256,459.983,256z"/>
			</g>
		</g>
		<g>
			<g>
				<path fill="#116FFF" d="M347.996,271.998c-2.211,0-4-1.788-4-3.999v-47.995c0-2.211,1.789-4,4-4c2.21,0,3.999,1.789,3.999,4
					v47.995C351.995,270.21,350.206,271.998,347.996,271.998z"/>
			</g>
		</g>
		<g>
			<g>
				<path fill="#116FFF" d="M363.994,271.998h-15.998c-2.211,0-4-1.788-4-3.999s1.789-4,4-4h15.998c2.211,0,4,1.789,4,4
					S366.205,271.998,363.994,271.998z"/>
			</g>
		</g>
		<g>
			<g>
				<path fill="#116FFF" d="M363.994,271.998c-2.211,0-4-1.788-4-3.999v-47.995c0-2.211,1.789-4,4-4s4,1.789,4,4v47.995
					C367.994,270.21,366.205,271.998,363.994,271.998z"/>
			</g>
		</g>
		<g>
			<g>
				<path fill="#116FFF" d="M363.994,224.004h-15.998c-2.211,0-4-1.789-4-4s1.789-4,4-4h15.998c2.211,0,4,1.789,4,4
					S366.205,224.004,363.994,224.004z"/>
			</g>
		</g>
		<g>
			<g>
				<path fill="#116FFF" d="M355.995,224.004c-2.211,0-4-1.789-4-4v-7.999c0-2.211,1.789-4,4-4c2.21,0,3.999,1.789,3.999,4v7.999
					C359.994,222.215,358.205,224.004,355.995,224.004z"/>
			</g>
		</g>
		<g>
			<g>
				<path fill="#116FFF" d="M379.992,271.998c-2.211,0-4-1.788-4-3.999v-47.995c0-2.211,1.789-4,4-4s4,1.789,4,4v47.995
					C383.992,270.21,382.203,271.998,379.992,271.998z"/>
			</g>
		</g>
		<g>
			<g>
				<path fill="#116FFF" d="M395.99,271.998h-15.998c-2.211,0-4-1.788-4-3.999s1.789-4,4-4h15.998c2.211,0,4,1.789,4,4
					S398.201,271.998,395.99,271.998z"/>
			</g>
		</g>
		<g>
			<g>
				<path fill="#116FFF" d="M395.99,271.998c-2.211,0-3.999-1.788-3.999-3.999v-47.995c0-2.211,1.788-4,3.999-4s4,1.789,4,4v47.995
					C399.99,270.21,398.201,271.998,395.99,271.998z"/>
			</g>
		</g>
		<g>
			<g>
				<path fill="#116FFF" d="M395.99,224.004h-15.998c-2.211,0-4-1.789-4-4s1.789-4,4-4h15.998c2.211,0,4,1.789,4,4
					S398.201,224.004,395.99,224.004z"/>
			</g>
		</g>
		<g>
			<g>
				<path fill="#116FFF" d="M387.991,224.004c-2.21,0-3.999-1.789-3.999-4v-7.999c0-2.211,1.789-4,3.999-4c2.211,0,4,1.789,4,4
					v7.999C391.991,222.215,390.202,224.004,387.991,224.004z"/>
			</g>
		</g>
		<g>
			<g>
				<path fill="#116FFF" d="M411.988,271.998c-2.21,0-3.999-1.788-3.999-3.999v-47.995c0-2.211,1.789-4,3.999-4c2.211,0,4,1.789,4,4
					v47.995C415.988,270.21,414.199,271.998,411.988,271.998z"/>
			</g>
		</g>
		<g>
			<g>
				<path fill="#116FFF" d="M427.987,271.998h-15.999c-2.21,0-3.999-1.788-3.999-3.999s1.789-4,3.999-4h15.999
					c2.21,0,3.999,1.789,3.999,4S430.197,271.998,427.987,271.998z"/>
			</g>
		</g>
		<g>
			<g>
				<path fill="#116FFF" d="M427.987,271.998c-2.211,0-4-1.788-4-3.999v-47.995c0-2.211,1.789-4,4-4c2.21,0,3.999,1.789,3.999,4
					v47.995C431.986,270.21,430.197,271.998,427.987,271.998z"/>
			</g>
		</g>
		<g>
			<g>
				<path fill="#116FFF" d="M427.987,224.004h-15.999c-2.21,0-3.999-1.789-3.999-4s1.789-4,3.999-4h15.999
					c2.21,0,3.999,1.789,3.999,4S430.197,224.004,427.987,224.004z"/>
			</g>
		</g>
		<g>
			<g>
				<path fill="#116FFF" d="M419.988,224.004c-2.211,0-4-1.789-4-4v-7.999c0-2.211,1.789-4,4-4c2.21,0,3.999,1.789,3.999,4v7.999
					C423.987,222.215,422.198,224.004,419.988,224.004z"/>
			</g>
		</g>
		<g>
			<g>
				<path fill="#116FFF" d="M339.996,256h-23.997c-2.21,0-3.999-1.789-3.999-4s1.789-4,3.999-4h23.997c2.211,0,4,1.789,4,4
					S342.207,256,339.996,256z"/>
			</g>
		</g>
		<g>
			<g>
				<path fill="#116FFF" d="M459.983,256h-23.997c-2.211,0-4-1.789-4-4s1.789-4,4-4h23.997c2.211,0,4,1.789,4,4
					S462.194,256,459.983,256z"/>
			</g>
		</g>
		<g>
			<g>
				<path fill="#116FFF" d="M467.982,295.996h-96.653c-2.211,0-3.999-1.789-3.999-4s1.788-3.999,3.999-3.999h96.653
					c2.211,0,4,1.788,4,3.999S470.193,295.996,467.982,295.996z"/>
			</g>
		</g>
		<g>
			<g>
				<path fill="#116FFF" d="M276.004,104.017c-2.211,0-4-1.789-4-4V28.025c0-2.21,1.789-4,4-4s3.999,1.789,3.999,4v71.992
					C280.003,102.228,278.215,104.017,276.004,104.017z"/>
			</g>
		</g>
		<g>
			<g>
				<path fill="#116FFF" d="M292.002,263.999c-2.211,0-4-1.789-4-3.999V28.025c0-2.21,1.789-4,4-4s4,1.789,4,4V260
					C296.002,262.21,294.213,263.999,292.002,263.999z"/>
			</g>
		</g>
		<g>
			<g>
				<path fill="#116FFF" d="M276.004,32.024c-2.211,0-4-1.789-4-4c0-15.436,12.562-27.997,27.997-27.997
					c2.211,0,3.999,1.789,3.999,3.999c0,2.211-1.788,4-3.999,4c-11.03,0-19.998,8.968-19.998,19.998
					C280.003,30.235,278.215,32.024,276.004,32.024z"/>
			</g>
		</g>
		<g>
			<g>
				<path fill="#116FFF" d="M292.002,32.024c-2.211,0-4-1.789-4-4c0-6.617,5.383-11.999,11.999-11.999c2.211,0,3.999,1.789,3.999,4
					s-1.788,4-3.999,4c-2.203,0-3.999,1.797-3.999,4C296.002,30.235,294.213,32.024,292.002,32.024z"/>
			</g>
		</g>
		<g>
			<g>
				<path fill="#116FFF" d="M437.377,24.025H300.001c-2.211,0-3.999-1.789-3.999-4s1.788-4,3.999-4h137.376
					c2.211,0,3.999,1.789,3.999,4S439.588,24.025,437.377,24.025z"/>
			</g>
		</g>
		<g>
			<g>
				<path fill="#116FFF" d="M443.985,8.027H300.001c-2.211,0-3.999-1.789-3.999-4c0-2.21,1.788-3.999,3.999-3.999h143.984
					c2.211,0,3.999,1.789,3.999,3.999C447.984,6.238,446.196,8.027,443.985,8.027z"/>
			</g>
		</g>
		<g>
			<g>
				<path fill="#116FFF" d="M443.985,56.022H339.996c-2.21,0-3.999-1.789-3.999-4c0-2.211,1.789-4,3.999-4h103.989
					c2.211,0,3.999,1.789,3.999,4C447.984,54.233,446.196,56.022,443.985,56.022z"/>
			</g>
		</g>
		<g>
			<g>
				<path fill="#116FFF" d="M435.986,40.023h-95.99c-2.21,0-3.999-1.789-3.999-3.999c0-2.211,1.789-4,3.999-4h95.99
					c2.211,0,3.999,1.789,3.999,4C439.985,38.235,438.197,40.023,435.986,40.023z"/>
			</g>
		</g>
		<g>
			<g>
				<path fill="#116FFF" d="M467.982,56.022c-15.436,0-27.997-12.561-27.997-27.997s12.562-27.997,27.997-27.997
					s27.997,12.561,27.997,27.997S483.418,56.022,467.982,56.022z M467.982,8.027c-11.029,0-19.998,8.968-19.998,19.998
					s8.969,19.998,19.998,19.998c11.03,0,19.998-8.968,19.998-19.998S479.013,8.027,467.982,8.027z"/>
			</g>
		</g>
		<g>
			<g>
				<path fill="#116FFF" d="M467.982,40.023c-6.616,0-11.998-5.382-11.998-11.999s5.382-11.999,11.998-11.999
					c6.617,0,11.999,5.382,11.999,11.999S474.6,40.023,467.982,40.023z M467.982,24.025c-2.203,0-3.999,1.797-3.999,4
					s1.796,4,3.999,4s4-1.797,4-4S470.186,24.025,467.982,24.025z"/>
			</g>
		</g>
		<g>
			<g>
				<path fill="#116FFF" d="M339.996,56.022c-6.616,0-11.998-5.382-11.998-11.999c0-6.617,5.382-11.999,11.998-11.999
					c2.211,0,4,1.789,4,4c0,2.21-1.789,3.999-4,3.999c-2.202,0-3.999,1.797-3.999,4c0,2.203,1.797,3.999,3.999,3.999
					c2.211,0,4,1.789,4,4C343.996,54.233,342.207,56.022,339.996,56.022z"/>
			</g>
		</g>
		<g>
			<g>
				<path fill="#116FFF" d="M363.994,72.02c-2.211,0-4-1.789-4-4V52.022c0-2.211,1.789-4,4-4s4,1.789,4,4v15.998
					C367.994,70.231,366.205,72.02,363.994,72.02z"/>
			</g>
		</g>
		<g>
			<g>
				<path fill="#116FFF" d="M347.996,72.02c-2.211,0-4-1.789-4-4V52.022c0-2.211,1.789-4,4-4c2.21,0,3.999,1.789,3.999,4v15.998
					C351.995,70.231,350.206,72.02,347.996,72.02z"/>
			</g>
		</g>
		<g>
			<g>
				<path fill="#116FFF" d="M363.994,136.013h-39.996c-2.211,0-3.999-1.789-3.999-4V68.021c0-2.211,1.788-4,3.999-4h39.996
					c2.211,0,4,1.789,4,4s-1.789,4-4,4h-35.996v55.994h35.996c2.211,0,4,1.789,4,4S366.205,136.013,363.994,136.013z"/>
			</g>
		</g>
		<g>
			<g>
				<path fill="#116FFF" d="M363.994,136.013c-2.211,0-4-1.789-4-4s1.789-4,4-4c15.436,0,27.997-12.561,27.997-27.997
					S379.43,72.02,363.994,72.02c-2.211,0-4-1.789-4-4s1.789-4,4-4c19.85,0,35.996,16.147,35.996,35.996
					S383.844,136.013,363.994,136.013z"/>
			</g>
		</g>
		<g>
			<g>
				<path fill="#116FFF" d="M339.996,128.014c-2.21,0-3.999-1.789-3.999-3.999V76.02c0-2.21,1.789-4,3.999-4c2.211,0,4,1.789,4,4
					v47.995C343.996,126.225,342.207,128.014,339.996,128.014z"/>
			</g>
		</g>
		<g>
			<g>
				<path fill="#116FFF" d="M292.002,321.196c-2.211,0-4-1.789-4-4v-49.197c0-2.211,1.789-4,4-4s4,1.789,4,4v49.197
					C296.002,319.407,294.213,321.196,292.002,321.196z"/>
			</g>
		</g>
		<g>
			<g>
				<path fill="#116FFF" d="M292.002,271.998H172.011c-2.21,0-3.999-1.788-3.999-3.999s1.789-4,3.999-4h119.991c2.211,0,4,1.789,4,4
					S294.213,271.998,292.002,271.998z"/>
			</g>
		</g>
		<g>
			<g>
				<path fill="#116FFF" d="M172.011,332.788c-2.21,0-3.999-1.788-3.999-3.999v-60.79c0-2.211,1.789-4,3.999-4c2.211,0,4,1.789,4,4
					v60.79C176.011,331,174.222,332.788,172.011,332.788z"/>
			</g>
		</g>
		<g>
			<g>
				<path fill="#116FFF" d="M180.01,263.999c-11.03,0-19.998-8.968-19.998-19.998c0-2.21,1.789-4,4-4s4,1.789,4,4
					c0,6.617,5.382,11.999,11.998,11.999c2.211,0,4,1.789,4,4C184.01,262.21,182.221,263.999,180.01,263.999z"/>
			</g>
		</g>
		<g>
			<g>
				<path fill="#ff6673" d="M244.003,263.999c-2.21,0-3.999-1.789-3.999-3.999c0-2.211,1.789-4,3.999-4
					c6.617,0,11.999-5.382,11.999-11.999c0-2.21,1.789-4,4-4c2.21,0,4.003,1.789,4.003,4
					C264.005,255.031,255.034,263.999,244.003,263.999z"/>
			</g>
		</g>
		<g>
			<g>
				<path fill="#116FFF" d="M260.002,248.001h-95.99c-2.211,0-4-1.789-4-4s1.789-4,4-4h95.99c2.21,0,4.003,1.789,4.003,4
					S262.212,248.001,260.002,248.001z"/>
			</g>
		</g>
		<g>
			<g>
				<path fill="#116FFF" d="M212.007,248.001c-2.211,0-4-1.789-4-4v-39.996c0-2.211,1.789-4,4-4c2.21,0,3.999,1.789,3.999,4v39.996
					C216.006,246.212,214.218,248.001,212.007,248.001z"/>
			</g>
		</g>
		<g>
			<g>
				<path fill="#116FFF" d="M228.005,248.001c-2.211,0-4-1.789-4-4v-4c0-2.211,1.789-4,4-4s4,1.789,4,4v4
					C232.005,246.212,230.216,248.001,228.005,248.001z"/>
			</g>
		</g>
		<g>
			<g>
				<path fill="#116FFF" d="M196.009,248.001c-2.21,0-4-1.789-4-4v-4c0-2.211,1.789-4,4-4s4,1.789,4,4v4
					C200.008,246.212,198.219,248.001,196.009,248.001z"/>
			</g>
		</g>
		<g>
			<g>
				<path fill="#116FFF" d="M387.991,295.996c-2.21,0-3.999-1.789-3.999-4v-7.999c0-2.211,1.789-4,3.999-4c2.211,0,4,1.789,4,4
					v7.999C391.991,294.207,390.202,295.996,387.991,295.996z"/>
			</g>
		</g>
		<g>
			<g>
				<path fill="#116FFF" d="M315.999,216.004h-15.998c-2.211,0-3.999-1.789-3.999-4s1.788-4,3.999-4h15.998c2.211,0,4,1.789,4,4
					S318.21,216.004,315.999,216.004z"/>
			</g>
		</g>
		<g>
			<g>
				<path fill="#116FFF" d="M315.999,240.002h-15.998c-2.211,0-3.999-1.789-3.999-4c0-2.21,1.788-3.999,3.999-3.999h15.998
					c2.211,0,4,1.789,4,3.999C319.999,238.213,318.21,240.002,315.999,240.002z"/>
			</g>
		</g>
		<g>
			<g>
				<path fill="#116FFF" d="M276.004,104.017h-55.998c-2.211,0-4-1.789-4-4s1.789-4,4-4h55.998c2.211,0,3.999,1.789,3.999,4
					S278.215,104.017,276.004,104.017z"/>
			</g>
		</g>
		<g>
			<g>
				<path fill="#116FFF" d="M276.004,120.015h-55.998c-2.211,0-4-1.789-4-3.999c0-2.211,1.789-4,4-4h55.998
					c2.211,0,3.999,1.789,3.999,4C280.003,118.226,278.215,120.015,276.004,120.015z"/>
			</g>
		</g>
		<g>
			<g>
				<path fill="#116FFF" d="M276.004,263.999c-2.211,0-4-1.789-4-3.999V116.016c0-2.211,1.789-4,4-4s3.999,1.789,3.999,4V260
					C280.003,262.21,278.215,263.999,276.004,263.999z"/>
			</g>
		</g>
		<g>
			<g>
				<path fill="#116FFF" d="M204.008,327.992c-1.703,0-3.281-1.094-3.82-2.804c-0.656-2.109,0.516-4.352,2.625-5.016l55.994-17.498
					c2.147-0.664,4.351,0.523,5.015,2.625c0.66,2.109-0.516,4.351-2.625,5.015l-55.993,17.498
					C204.805,327.938,204.398,327.992,204.008,327.992z"/>
			</g>
		</g>
		<g>
			<g>
				<path fill="#116FFF" d="M212.007,152.012H108.018c-2.21,0-3.999-1.789-3.999-4v-87.99c0-2.211,1.789-4,3.999-4h103.989
					c2.21,0,3.999,1.789,3.999,4v87.99C216.006,150.223,214.218,152.012,212.007,152.012z M112.018,144.012h95.989V64.021h-95.989
					V144.012z"/>
			</g>
		</g>
		<g>
			<g>
				<path fill="#116FFF" d="M196.009,136.013h-71.992c-2.21,0-4-1.789-4-4V76.02c0-2.21,1.789-4,4-4h71.992c2.21,0,4,1.789,4,4
					v55.994C200.008,134.225,198.219,136.013,196.009,136.013z M128.016,128.014h63.993V80.02h-63.993V128.014z"/>
			</g>
		</g>
		<g>
			<g>
				<path fill="#116FFF" d="M116.018,168.01c-6.617,0-11.999-5.382-11.999-11.999c0-2.21,1.789-3.999,3.999-3.999
					c2.211,0,4,1.789,4,3.999c0,2.203,1.797,4,4,4c2.21,0,4,1.789,4,3.999C120.017,166.221,118.228,168.01,116.018,168.01z"/>
			</g>
		</g>
		<g>
			<g>
				<path fill="#116FFF" d="M204.008,168.01c-2.211,0-4-1.789-4-4c0-2.21,1.789-3.999,4-3.999c2.203,0,3.999-1.797,3.999-4
					c0-2.21,1.789-3.999,4-3.999c2.21,0,3.999,1.789,3.999,3.999C216.006,162.627,210.625,168.01,204.008,168.01z"/>
			</g>
		</g>
		<g>
			<g>
				<path fill="#116FFF" d="M204.008,168.01h-87.991c-2.21,0-4-1.789-4-4c0-2.21,1.789-3.999,4-3.999h87.991
					c2.21,0,3.999,1.789,3.999,3.999C208.007,166.221,206.219,168.01,204.008,168.01z"/>
			</g>
		</g>
		<g>
			<g>
				<path fill="#116FFF" d="M475.981,495.974H292.002c-2.211,0-4-1.789-4-3.999c0-2.211,1.789-4,4-4h183.979c2.211,0,4,1.789,4,4
					C479.981,494.185,478.192,495.974,475.981,495.974z"/>
			</g>
		</g>
		<g>
			<g>
				<path fill="#116FFF" d="M491.98,495.974c-2.211,0-4-1.789-4-3.999c0-50.722-41.27-91.99-91.99-91.99
					c-2.211,0-3.999-1.789-3.999-3.999c0-2.211,1.788-4,3.999-4c55.135,0,99.989,44.854,99.989,99.989
					C495.979,494.185,494.19,495.974,491.98,495.974z"/>
			</g>
		</g>
		<g>
			<g>
				<path fill="#116FFF" d="M395.99,399.984h-79.991c-2.21,0-3.999-1.789-3.999-3.999c0-2.211,1.789-4,3.999-4h79.991
					c2.211,0,4,1.789,4,4C399.99,398.195,398.201,399.984,395.99,399.984z"/>
			</g>
		</g>
		<g>
			<g>
				<path fill="#116FFF" d="M491.98,511.972c-2.211,0-4-1.788-4-3.999v-15.998c0-2.211,1.789-4,4-4c2.21,0,3.999,1.789,3.999,4
					v15.998C495.979,510.184,494.19,511.972,491.98,511.972z"/>
			</g>
		</g>
	</g>
</g>
</svg>
