<svg xmlns="http://www.w3.org/2000/svg" width="128" height="128" viewBox="0 0 128 128">
  <title>MARBURG</title>
  <g>
    <g>
      <path d="M64,23.911a2.985,2.985,0,0,0-1.75,5.407V34.25a1.75,1.75,0,0,0,3.5,0V29.318A2.985,2.985,0,0,0,64,23.911Z" fill="#e60c3b"/>
      <path d="M74.741,40.185a1.745,1.745,0,0,0,1.238-.513l3.487-3.487a2.991,2.991,0,1,0-2.475-2.475L73.5,37.2a1.751,1.751,0,0,0,1.237,2.988Z" fill="#e60c3b"/>
      <path d="M51.009,33.71a2.991,2.991,0,1,0-2.475,2.475l3.487,3.487A1.75,1.75,0,0,0,54.5,37.2Z" fill="#e60c3b"/>
      <path d="M52.021,88.328l-3.487,3.487a2.991,2.991,0,1,0,2.475,2.475L54.5,90.8a1.75,1.75,0,0,0-2.475-2.475Z" fill="#e60c3b"/>
      <path d="M79.466,91.815l-3.487-3.487A1.75,1.75,0,0,0,73.5,90.8l3.487,3.487a2.991,2.991,0,1,0,2.475-2.475Z" fill="#e60c3b"/>
      <path d="M65.75,98.682V93.75a1.75,1.75,0,0,0-3.5,0v4.932a2.991,2.991,0,1,0,3.5,0Z" fill="#e60c3b"/>
      <path d="M49.529,80.25a1.75,1.75,0,0,0,0-3.5H44.6a2.991,2.991,0,1,0,0,3.5Z" fill="#e60c3b"/>
      <path d="M42.181,66.991A2.979,2.979,0,0,0,44.6,65.75h4.932a1.75,1.75,0,0,0,0-3.5H44.6a2.988,2.988,0,1,0-2.416,4.741Z" fill="#e60c3b"/>
      <path d="M42.181,52.491A2.979,2.979,0,0,0,44.6,51.25h4.932a1.75,1.75,0,0,0,0-3.5H44.6a2.988,2.988,0,1,0-2.416,4.741Z" fill="#e60c3b"/>
      <path d="M78.471,47.75a1.75,1.75,0,0,0,0,3.5H83.4a2.991,2.991,0,1,0,0-3.5Z" fill="#e60c3b"/>
      <path d="M85.819,61.009A2.979,2.979,0,0,0,83.4,62.25H78.471a1.75,1.75,0,0,0,0,3.5H83.4a2.988,2.988,0,1,0,2.416-4.741Z" fill="#e60c3b"/>
      <path d="M85.819,75.509A2.979,2.979,0,0,0,83.4,76.75H78.471a1.75,1.75,0,0,0,0,3.5H83.4a2.988,2.988,0,1,0,2.416-4.741Z" fill="#e60c3b"/>
    </g>
    <path d="M64,34.25A14.471,14.471,0,0,0,49.529,48.721V79.279a14.471,14.471,0,0,0,28.942,0V48.721A14.471,14.471,0,0,0,64,34.25Z" fill="#f8495d"/>
    <g>
      <g>
        <circle cx="59.609" cy="47.518" r="2.188" fill="#ffee85"/>
        <circle cx="68.391" cy="47.518" r="2.188" fill="#ffee85"/>
      </g>
      <g>
        <circle cx="59.609" cy="55.759" r="2.188" fill="#ffee85"/>
        <circle cx="68.391" cy="55.759" r="2.188" fill="#ffee85"/>
      </g>
      <g>
        <circle cx="59.609" cy="64" r="2.188" fill="#ffee85"/>
        <circle cx="68.391" cy="64" r="2.188" fill="#ffee85"/>
      </g>
      <g>
        <circle cx="59.609" cy="72.241" r="2.188" fill="#ffee85"/>
        <circle cx="68.391" cy="72.241" r="2.188" fill="#ffee85"/>
      </g>
      <g>
        <circle cx="59.609" cy="80.482" r="2.188" fill="#ffee85"/>
        <circle cx="68.391" cy="80.482" r="2.188" fill="#ffee85"/>
      </g>
    </g>
  </g>
</svg>
