<?xml version="1.0" encoding="utf-8"?>
<!-- Generator: Adobe Illustrator 16.0.0, SVG Export Plug-In . SVG Version: 6.00 Build 0)  -->
<!DOCTYPE svg PUBLIC "-//W3C//DTD SVG 1.1//EN" "http://www.w3.org/Graphics/SVG/1.1/DTD/svg11.dtd">
<svg version="1.1" id="Layer_1" xmlns="http://www.w3.org/2000/svg" xmlns:xlink="http://www.w3.org/1999/xlink" x="0px" y="0px"
	 width="512px" height="512px" viewBox="0 0 512 512" enable-background="new 0 0 512 512" xml:space="preserve">
<g id="_x31_8._wheelchair_x2C__disabled_x2C__medicine_x2C__hospital_x2C__treatment_x2C__disease_1_">
	<g>
		<g>
			<path fill="#FFFFFF" d="M359.895,423.981c6.641,0,11.999,5.359,11.999,11.999s-5.358,11.999-11.999,11.999
				c-6.554,0-11.998-5.359-11.998-11.999S353.341,423.981,359.895,423.981z"/>
		</g>
	</g>
	<g>
		<g>
			<path fill="#D7E9FF" d="M359.895,447.979c6.641,0,11.999-5.359,11.999-11.999s-5.358-11.999-11.999-11.999
				c-6.554,0-11.998,5.359-11.998,11.999S353.341,447.979,359.895,447.979z M387.892,435.98c0,15.436-12.476,27.997-27.997,27.997
				c-15.436,0-27.996-12.562-27.996-27.997s12.561-27.997,27.996-27.997C375.416,407.983,387.892,420.545,387.892,435.98z"/>
		</g>
	</g>
	<g>
		<g>
			<path fill="#94C1FF" d="M359.895,463.978c15.521,0,27.997-12.562,27.997-27.997s-12.476-27.997-27.997-27.997
				c-15.436,0-27.996,12.562-27.996,27.997S344.459,463.978,359.895,463.978z M379.893,396.868
				c14.24,7.193,23.998,21.997,23.998,39.112c0,24.317-19.678,43.995-43.996,43.995c-24.231,0-43.995-19.678-43.995-43.995
				s19.764-43.995,43.995-43.995c1.359,0,2.719,0.078,4,0.242C369.659,392.704,375.018,394.306,379.893,396.868z"/>
		</g>
	</g>
	<g>
		<g>
			<polygon fill="#94C1FF" points="443.886,415.982 507.879,415.982 499.88,431.981 427.888,431.981 427.888,415.982 			"/>
		</g>
	</g>
	<g>
		<g>
			<path fill="#5C9EFF" d="M363.895,184.008v55.994h-83.991h-0.078c-18.318-25.841-44.558-45.597-75.108-55.916v-0.078H363.895z"/>
		</g>
	</g>
	<g>
		<g>
			<rect x="187.914" y="96.018" fill="#94C1FF" width="143.984" height="15.998"/>
		</g>
	</g>
	<g>
		<g>
			<path fill="#D7E9FF" d="M379.893,279.997v116.785v0.086c-4.875-2.562-10.233-4.164-15.998-4.641v-0.242v-23.997H302.62h-0.078
				c1.437-5.203,2.64-10.562,3.437-15.999h0.086h57.83v-71.992h-63.673h-0.078c-1.758-5.522-3.921-10.795-6.319-15.998h70.07
				v-23.997v-55.994v-31.996c0-13.28-10.718-23.998-23.998-23.998h-175.98v-15.998h23.998h143.984h7.998
				c22.162,0,39.996,17.92,39.996,39.996v111.987h23.998c22.161,0,39.995,17.92,39.995,39.996v111.987h-15.998V303.995
				c0-13.28-10.718-23.998-23.997-23.998H379.893z"/>
		</g>
	</g>
	<g>
		<g>
			<path fill="#D7E9FF" d="M163.916,128.014v48.151c-2.64-0.078-5.358-0.156-7.999-0.156s-5.358,0.078-7.999,0.156V56.021
				c0-4.397-3.516-7.999-7.999-7.999h-15.998h-15.999H91.924H75.926V32.024h63.993c13.279,0,23.997,10.718,23.997,23.997v55.994
				V128.014z"/>
		</g>
	</g>
	<g>
		<g>
			<path fill="#E6E9ED" d="M163.916,176.165v-0.156c-1.32,0-2.655,0.047-3.999,0.078
				C161.261,176.118,162.596,176.126,163.916,176.165z"/>
		</g>
	</g>
	<g>
		<g>
			<path fill="#94C1FF" d="M302.542,367.988c-17.515,64.556-76.469,111.987-146.625,111.987
				c-83.913,0-151.983-68.07-151.983-151.983c0-81.272,63.837-147.664,143.984-151.827c2.641-0.078,5.358-0.156,7.999-0.156
				s5.359,0.078,7.999,0.156c14.241,0.805,27.919,3.444,40.801,7.921c30.551,10.319,56.79,30.075,75.108,55.916
				c5.437,7.522,10.077,15.521,13.999,23.997c2.398,5.203,4.562,10.476,6.319,15.998c5.038,15.038,7.757,31.2,7.757,47.995
				c0,8.155-0.641,16.154-1.922,23.997C305.182,357.427,303.979,362.785,302.542,367.988z M155.917,463.978
				c75.117,0,135.985-60.876,135.985-135.985c0-74.953-60.634-135.743-135.587-135.985c-0.156,0-0.234,0-0.398,0
				c-75.03,0-135.985,60.876-135.985,135.985c0,74.953,60.713,135.743,135.587,135.985
				C155.683,463.978,155.761,463.978,155.917,463.978z"/>
		</g>
	</g>
	<g>
		<g>
			<path fill="#94C1FF" d="M155.917,295.996c17.678,0,31.997,14.318,31.997,31.996s-14.319,31.997-31.997,31.997
				c-3.28,0-6.476-0.477-9.515-1.438c-13.037-4.086-22.481-16.162-22.481-30.56c0-14.396,9.444-26.474,22.481-30.56
				C149.441,296.472,152.637,295.996,155.917,295.996z"/>
		</g>
	</g>
	<g>
		<g>
			<path fill="#D7E9FF" d="M156.315,192.007c-0.156,0-0.234,0-0.398,0c-75.03,0-135.985,60.876-135.985,135.985
				c0,74.953,60.713,135.743,135.587,135.985c0.164,0,0.242,0,0.398,0c75.117,0,135.985-60.876,135.985-135.985
				C291.902,253.039,231.269,192.249,156.315,192.007z M155.917,359.989c-3.28,0-6.476-0.477-9.515-1.438
				c-13.037-4.086-22.481-16.162-22.481-30.56c0-14.396,9.444-26.474,22.481-30.56c3.039-0.961,6.234-1.437,9.515-1.437
				c17.678,0,31.997,14.318,31.997,31.996S173.595,359.989,155.917,359.989z"/>
		</g>
	</g>
	<g>
		<g>
			<g>
				<path fill="#FFFFFF" d="M27.931,327.992c0-73.789,58.861-133.696,132.072-135.79c-1.234-0.031-2.445-0.195-3.688-0.195
					c-0.156,0-0.234,0-0.398,0c-75.03,0-135.985,60.876-135.985,135.985c0,74.953,60.713,135.743,135.587,135.985
					c0.164,0,0.242,0,0.398,0c1.32,0,2.602-0.156,3.914-0.195C86.675,461.571,27.931,401.703,27.931,327.992z"/>
			</g>
		</g>
	</g>
	<g>
		<g>
			<g>
				<path fill="#94C1FF" d="M283.63,327.992c0,73.789-58.861,133.696-132.071,135.79c1.233,0.031,2.444,0.195,3.687,0.195
					c0.156,0,0.234,0,0.398,0c75.031,0,135.985-60.876,135.985-135.985c0-74.953-60.712-135.743-135.587-135.985
					c-0.164,0-0.242,0-0.398,0c-1.32,0-2.602,0.156-3.913,0.195C224.886,194.413,283.63,254.281,283.63,327.992z"/>
			</g>
		</g>
	</g>
	<g id="_x31_8._wheelchair_x2C__disabled_x2C__medicine_x2C__hospital_x2C__treatment_x2C__disease">
		<g>
			<g>
				<path fill="#116FFF" d="M156.249,331.992c-2.207,0-4.038-1.789-4.038-4s1.749-3.999,3.96-3.999h0.078c2.211,0,4,1.788,4,3.999
					S158.46,331.992,156.249,331.992z"/>
			</g>
		</g>
		<g>
			<g>
				<path fill="#116FFF" d="M156.011,483.976c-86.01,0-155.982-69.977-155.982-155.983c0-86.006,69.973-155.983,155.982-155.983
					c86.011,0,155.983,69.978,155.983,155.983C311.994,413.999,242.021,483.976,156.011,483.976z M156.011,180.008
					c-81.601,0-147.983,66.384-147.983,147.984S74.41,475.976,156.011,475.976s147.983-66.383,147.983-147.983
					S237.611,180.008,156.011,180.008z"/>
			</g>
		</g>
		<g>
			<g>
				<path fill="#116FFF" d="M156.011,467.978c-77.187,0-139.984-62.799-139.984-139.985s62.798-139.984,139.984-139.984
					c77.188,0,139.985,62.798,139.985,139.984S233.198,467.978,156.011,467.978z M156.011,196.007
					c-72.777,0-131.985,59.212-131.985,131.985s59.208,131.985,131.985,131.985s131.985-59.212,131.985-131.985
					S228.788,196.007,156.011,196.007z"/>
			</g>
		</g>
		<g>
			<g>
				<path fill="#116FFF" d="M359.988,483.976c-26.466,0-47.994-21.529-47.994-47.995s21.528-47.995,47.994-47.995
					s47.995,21.529,47.995,47.995S386.454,483.976,359.988,483.976z M359.988,395.985c-22.052,0-39.995,17.943-39.995,39.995
					s17.943,39.995,39.995,39.995c22.053,0,39.996-17.943,39.996-39.995S382.041,395.985,359.988,395.985z"/>
			</g>
		</g>
		<g>
			<g>
				<path fill="#116FFF" d="M359.988,467.978c-17.646,0-31.996-14.351-31.996-31.997s14.35-31.997,31.996-31.997
					s31.997,14.351,31.997,31.997S377.635,467.978,359.988,467.978z M359.988,411.983c-13.232,0-23.997,10.764-23.997,23.997
					s10.765,23.997,23.997,23.997c13.233,0,23.998-10.764,23.998-23.997S373.222,411.983,359.988,411.983z"/>
			</g>
		</g>
		<g>
			<g>
				<path fill="#116FFF" d="M359.988,451.979c-8.819,0-15.998-7.179-15.998-15.998s7.179-15.998,15.998-15.998
					s15.998,7.179,15.998,15.998S368.808,451.979,359.988,451.979z M359.988,427.981c-4.413,0-7.999,3.586-7.999,7.999
					s3.586,7.999,7.999,7.999c4.414,0,8-3.586,8-7.999S364.402,427.981,359.988,427.981z"/>
			</g>
		</g>
		<g>
			<g>
				<path fill="#116FFF" d="M379.986,392.868c-2.211,0-4-1.789-4-4V279.997c0-2.21,1.789-3.999,4-3.999s4,1.789,4,3.999v108.871
					C383.986,391.079,382.197,392.868,379.986,392.868z"/>
			</g>
		</g>
		<g>
			<g>
				<path fill="#116FFF" d="M363.988,388.228c-2.211,0-4-1.789-4-3.999v-16.24c0-2.211,1.789-4,4-4s4,1.789,4,4v16.24
					C367.988,386.438,366.199,388.228,363.988,388.228z"/>
			</g>
		</g>
		<g>
			<g>
				<path fill="#116FFF" d="M363.988,371.987h-53.369c-2.211,0-4-1.789-4-3.999c0-2.211,1.789-4,4-4h53.369c2.211,0,4,1.789,4,4
					C367.988,370.198,366.199,371.987,363.988,371.987z"/>
			</g>
		</g>
		<g>
			<g>
				<path fill="#116FFF" d="M363.988,355.989h-50.01c-2.211,0-4-1.789-4-4c0-2.21,1.789-3.999,4-3.999h50.01
					c2.211,0,4,1.789,4,3.999C367.988,354.2,366.199,355.989,363.988,355.989z"/>
			</g>
		</g>
		<g>
			<g>
				<path fill="#116FFF" d="M363.988,355.989c-2.211,0-4-1.789-4-4v-71.992c0-2.21,1.789-3.999,4-3.999s4,1.789,4,3.999v71.992
					C367.988,354.2,366.199,355.989,363.988,355.989z"/>
			</g>
		</g>
		<g>
			<g>
				<path fill="#116FFF" d="M363.988,283.997h-55.768c-2.211,0-4-1.789-4-4c0-2.21,1.789-3.999,4-3.999h55.768
					c2.211,0,4,1.789,4,3.999C367.988,282.208,366.199,283.997,363.988,283.997z"/>
			</g>
		</g>
		<g>
			<g>
				<path fill="#116FFF" d="M363.988,267.999h-62.165c-2.211,0-4-1.789-4-4s1.789-3.999,4-3.999h62.165c2.211,0,4,1.788,4,3.999
					S366.199,267.999,363.988,267.999z"/>
			</g>
		</g>
		<g>
			<g>
				<path fill="#116FFF" d="M443.979,307.994c-2.211,0-4-1.788-4-3.999c0-19.85-16.146-35.996-35.996-35.996
					c-2.21,0-3.999-1.789-3.999-4s1.789-3.999,3.999-3.999c24.256,0,43.995,19.739,43.995,43.995
					C447.979,306.206,446.19,307.994,443.979,307.994z"/>
			</g>
		</g>
		<g>
			<g>
				<path fill="#116FFF" d="M427.981,307.994c-2.211,0-4-1.788-4-3.999c0-11.03-8.968-19.998-19.998-19.998
					c-2.21,0-3.999-1.789-3.999-4c0-2.21,1.789-3.999,3.999-3.999c15.437,0,27.997,12.562,27.997,27.997
					C431.98,306.206,430.191,307.994,427.981,307.994z"/>
			</g>
		</g>
		<g>
			<g>
				<path fill="#116FFF" d="M403.983,283.997h-23.997c-2.211,0-4-1.789-4-4c0-2.21,1.789-3.999,4-3.999h23.997
					c2.211,0,4,1.789,4,3.999C407.983,282.208,406.194,283.997,403.983,283.997z"/>
			</g>
		</g>
		<g>
			<g>
				<path fill="#116FFF" d="M443.979,411.983c-2.211,0-4-1.789-4-4V303.995c0-2.211,1.789-4,4-4s3.999,1.789,3.999,4v103.988
					C447.979,410.194,446.19,411.983,443.979,411.983z"/>
			</g>
		</g>
		<g>
			<g>
				<path fill="#116FFF" d="M427.981,411.983c-2.211,0-4-1.789-4-4V303.995c0-2.211,1.789-4,4-4c2.21,0,3.999,1.789,3.999,4v103.988
					C431.98,410.194,430.191,411.983,427.981,411.983z"/>
			</g>
		</g>
		<g>
			<g>
				<path fill="#116FFF" d="M427.981,435.98c-2.211,0-4-1.789-4-3.999v-15.999c0-2.21,1.789-3.999,4-3.999
					c2.21,0,3.999,1.789,3.999,3.999v15.999C431.98,434.191,430.191,435.98,427.981,435.98z"/>
			</g>
		</g>
		<g>
			<g>
				<path fill="#116FFF" d="M499.974,435.98h-71.992c-2.211,0-4-1.789-4-3.999c0-2.211,1.789-4,4-4h71.992
					c2.21,0,3.999,1.789,3.999,4C503.973,434.191,502.184,435.98,499.974,435.98z"/>
			</g>
		</g>
		<g>
			<g>
				<path fill="#116FFF" d="M499.974,435.98c-0.602,0-1.211-0.133-1.789-0.422c-1.977-0.992-2.773-3.39-1.789-5.366l7.999-15.998
					c0.992-1.977,3.391-2.766,5.367-1.789c1.976,0.992,2.772,3.39,1.789,5.366l-8,15.998
					C502.848,435.168,501.434,435.98,499.974,435.98z"/>
			</g>
		</g>
		<g>
			<g>
				<path fill="#116FFF" d="M507.973,419.982h-79.991c-2.211,0-4-1.789-4-4c0-2.21,1.789-3.999,4-3.999h79.991
					c2.211,0,3.999,1.789,3.999,3.999C511.972,418.193,510.184,419.982,507.973,419.982z"/>
			</g>
		</g>
		<g>
			<g>
				<path fill="#116FFF" d="M363.988,180.008c-2.211,0-4-1.788-4-3.999v-23.997c0-2.211,1.789-4,4-4s4,1.789,4,4v23.997
					C367.988,178.22,366.199,180.008,363.988,180.008z"/>
			</g>
		</g>
		<g>
			<g>
				<path fill="#116FFF" d="M379.986,267.999c-2.211,0-4-1.789-4-4V152.012c0-2.211,1.789-4,4-4s4,1.789,4,4v111.987
					C383.986,266.21,382.197,267.999,379.986,267.999z"/>
			</g>
		</g>
		<g>
			<g>
				<path fill="#116FFF" d="M403.983,267.999h-23.997c-2.211,0-4-1.789-4-4s1.789-3.999,4-3.999h23.997c2.211,0,4,1.788,4,3.999
					S406.194,267.999,403.983,267.999z"/>
			</g>
		</g>
		<g>
			<g>
				<path fill="#116FFF" d="M379.986,156.011c-2.211,0-4-1.789-4-3.999c0-19.85-16.146-35.996-35.996-35.996
					c-2.21,0-3.999-1.789-3.999-4s1.789-4,3.999-4c24.256,0,43.996,19.74,43.996,43.996
					C383.986,154.222,382.197,156.011,379.986,156.011z"/>
			</g>
		</g>
		<g>
			<g>
				<path fill="#116FFF" d="M363.988,156.011c-2.211,0-4-1.789-4-3.999c0-11.03-8.968-19.998-19.998-19.998
					c-2.21,0-3.999-1.789-3.999-4s1.789-3.999,3.999-3.999c15.437,0,27.998,12.561,27.998,27.997
					C367.988,154.222,366.199,156.011,363.988,156.011z"/>
			</g>
		</g>
		<g>
			<g>
				<path fill="#116FFF" d="M339.99,116.016H172.009c-2.21,0-3.999-1.789-3.999-4s1.789-4,3.999-4H339.99c2.211,0,4,1.789,4,4
					S342.201,116.016,339.99,116.016z"/>
			</g>
		</g>
		<g>
			<g>
				<path fill="#116FFF" d="M339.99,132.014H172.009c-2.21,0-3.999-1.789-3.999-4s1.789-3.999,3.999-3.999H339.99
					c2.211,0,4,1.788,4,3.999S342.201,132.014,339.99,132.014z"/>
			</g>
		</g>
		<g>
			<g>
				<path fill="#116FFF" d="M188.008,108.016c-2.211,0-4-1.788-4-3.999v-7.999c0-2.211,1.789-4,4-4c2.21,0,3.999,1.789,3.999,4
					v7.999C192.007,106.228,190.218,108.016,188.008,108.016z"/>
			</g>
		</g>
		<g>
			<g>
				<path fill="#116FFF" d="M331.992,100.017H188.008c-2.211,0-4-1.788-4-3.999s1.789-4,4-4h143.984c2.21,0,3.999,1.789,3.999,4
					S334.202,100.017,331.992,100.017z"/>
			</g>
		</g>
		<g>
			<g>
				<path fill="#116FFF" d="M331.992,108.016c-2.211,0-4-1.788-4-3.999v-7.999c0-2.211,1.789-4,4-4c2.21,0,3.999,1.789,3.999,4
					v7.999C335.991,106.228,334.202,108.016,331.992,108.016z"/>
			</g>
		</g>
		<g>
			<g>
				<path fill="#116FFF" d="M164.01,172.165c-2.211,0-3.999-1.788-3.999-3.999V56.021c0-2.21,1.788-3.999,3.999-3.999
					s4,1.789,4,3.999v112.145C168.01,170.377,166.221,172.165,164.01,172.165z"/>
			</g>
		</g>
		<g>
			<g>
				<path fill="#116FFF" d="M148.012,172.165c-2.211,0-4-1.788-4-3.999V56.021c0-2.21,1.789-3.999,4-3.999s4,1.789,4,3.999v112.145
					C152.012,170.377,150.223,172.165,148.012,172.165z"/>
			</g>
		</g>
		<g>
			<g>
				<path fill="#116FFF" d="M164.01,60.021c-2.211,0-3.999-1.789-3.999-4c0-11.029-8.972-19.997-19.998-19.997c-2.211,0-4-1.789-4-4
					s1.789-4,4-4c15.436,0,27.997,12.562,27.997,27.997C168.01,58.232,166.221,60.021,164.01,60.021z"/>
			</g>
		</g>
		<g>
			<g>
				<path fill="#116FFF" d="M148.012,60.021c-2.211,0-4-1.789-4-4c0-2.202-1.792-3.999-3.999-3.999c-2.211,0-4-1.789-4-4
					s1.789-3.999,4-3.999c6.616,0,11.999,5.382,11.999,11.998C152.012,58.232,150.223,60.021,148.012,60.021z"/>
			</g>
		</g>
		<g>
			<g>
				<path fill="#116FFF" d="M140.013,36.024H76.02c-2.211,0-4-1.789-4-4s1.789-4,4-4h63.993c2.211,0,3.999,1.789,3.999,4
					S142.224,36.024,140.013,36.024z"/>
			</g>
		</g>
		<g>
			<g>
				<path fill="#116FFF" d="M140.013,52.022H76.02c-2.211,0-4-1.789-4-4s1.789-3.999,4-3.999h63.993
					c2.211,0,3.999,1.788,3.999,3.999S142.224,52.022,140.013,52.022z"/>
			</g>
		</g>
		<g>
			<g>
				<path fill="#116FFF" d="M76.02,52.022c-2.211,0-4-1.789-4-4V32.024c0-2.211,1.789-4,4-4s4,1.789,4,4v15.998
					C80.02,50.233,78.23,52.022,76.02,52.022z"/>
			</g>
		</g>
		<g>
			<g>
				<path fill="#116FFF" d="M108.016,52.022c-2.21,0-3.999-1.789-3.999-4v-3.999c0-2.211,1.789-4,3.999-4c2.211,0,4,1.789,4,4v3.999
					C112.016,50.233,110.227,52.022,108.016,52.022z"/>
			</g>
		</g>
		<g>
			<g>
				<path fill="#116FFF" d="M92.018,52.022c-2.21,0-3.999-1.789-3.999-4v-3.999c0-2.211,1.789-4,3.999-4c2.211,0,4,1.789,4,4v3.999
					C96.018,50.233,94.229,52.022,92.018,52.022z"/>
			</g>
		</g>
		<g>
			<g>
				<path fill="#116FFF" d="M124.015,52.022c-2.211,0-4-1.789-4-4v-3.999c0-2.211,1.789-4,4-4c2.21,0,3.999,1.789,3.999,4v3.999
					C128.014,50.233,126.225,52.022,124.015,52.022z"/>
			</g>
		</g>
		<g>
			<g>
				<path fill="#116FFF" d="M363.988,188.008H220.715c-2.211,0-4-1.789-4-4s1.789-4,4-4h143.273c2.211,0,4,1.789,4,4
					S366.199,188.008,363.988,188.008z"/>
			</g>
		</g>
		<g>
			<g>
				<path fill="#116FFF" d="M363.988,244.001h-76.086c-2.211,0-3.999-1.788-3.999-3.999s1.788-4,3.999-4h76.086c2.211,0,4,1.789,4,4
					S366.199,244.001,363.988,244.001z"/>
			</g>
		</g>
		<g>
			<g>
				<path fill="#116FFF" d="M363.988,244.001c-2.211,0-4-1.788-4-3.999v-55.994c0-2.211,1.789-4,4-4s4,1.789,4,4v55.994
					C367.988,242.213,366.199,244.001,363.988,244.001z"/>
			</g>
		</g>
		<g>
			<g>
				<path fill="#116FFF" d="M363.988,267.999c-2.211,0-4-1.789-4-4v-15.998c0-2.211,1.789-4,4-4s4,1.789,4,4v15.998
					C367.988,266.21,366.199,267.999,363.988,267.999z"/>
			</g>
		</g>
		<g>
			<g>
				<path fill="#116FFF" d="M156.011,451.979c-2.211,0-3.999-1.788-3.999-3.999v-71.992c0-2.211,1.788-4,3.999-4s4,1.789,4,4v71.992
					C160.011,450.19,158.222,451.979,156.011,451.979z"/>
			</g>
		</g>
		<g>
			<g>
				<path fill="#116FFF" d="M156.011,283.997c-2.211,0-3.999-1.789-3.999-4v-71.992c0-2.21,1.788-3.999,3.999-3.999s4,1.789,4,3.999
					v71.992C160.011,282.208,158.222,283.997,156.011,283.997z"/>
			</g>
		</g>
		<g>
			<g>
				<path fill="#116FFF" d="M201.928,442.847c-1.566,0-3.059-0.93-3.695-2.469l-27.552-66.516c-0.843-2.039,0.125-4.383,2.164-5.227
					c2.031-0.858,4.379,0.125,5.227,2.164l27.552,66.517c0.844,2.039-0.125,4.382-2.164,5.226
					C202.959,442.753,202.439,442.847,201.928,442.847z"/>
			</g>
		</g>
		<g>
			<g>
				<path fill="#116FFF" d="M137.638,287.638c-1.566,0-3.058-0.93-3.694-2.469l-27.544-66.493c-0.844-2.039,0.125-4.382,2.163-5.226
					c2.039-0.852,4.383,0.125,5.227,2.163l27.544,66.493c0.844,2.039-0.125,4.383-2.164,5.227
					C138.669,287.544,138.149,287.638,137.638,287.638z"/>
			</g>
		</g>
		<g>
			<g>
				<path fill="#116FFF" d="M240.861,416.842c-1.023,0-2.047-0.391-2.828-1.172l-50.916-50.916c-1.562-1.562-1.562-4.093,0-5.655
					c1.562-1.562,4.093-1.562,5.655,0l50.916,50.916c1.562,1.562,1.562,4.094,0,5.655
					C242.907,416.451,241.885,416.842,240.861,416.842z"/>
			</g>
		</g>
		<g>
			<g>
				<path fill="#116FFF" d="M122.085,298.058c-1.023,0-2.047-0.391-2.828-1.172l-50.908-50.9c-1.562-1.562-1.562-4.093,0-5.655
					s4.093-1.562,5.655,0l50.909,50.9c1.562,1.562,1.562,4.094,0,5.655C124.132,297.667,123.108,298.058,122.085,298.058z"/>
			</g>
		</g>
		<g>
			<g>
				<path fill="#116FFF" d="M266.874,377.925c-0.516,0-1.031-0.094-1.531-0.305l-66.524-27.56c-2.038-0.844-3.007-3.188-2.163-5.227
					c0.848-2.038,3.198-3.03,5.226-2.163l66.523,27.559c2.039,0.844,3.008,3.188,2.164,5.227
					C269.928,376.995,268.443,377.925,266.874,377.925z"/>
			</g>
		</g>
		<g>
			<g>
				<path fill="#116FFF" d="M111.656,313.627c-0.512,0-1.031-0.094-1.531-0.305l-66.492-27.536
					c-2.039-0.844-3.008-3.188-2.164-5.227s3.195-3.022,5.226-2.164l66.493,27.537c2.039,0.844,3.008,3.187,2.164,5.226
					C114.715,312.697,113.223,313.627,111.656,313.627z"/>
			</g>
		</g>
		<g>
			<g>
				<path fill="#116FFF" d="M276.014,332.008h-72.008c-2.211,0-4-1.789-4-4s1.789-3.999,4-3.999h72.008
					c2.211,0,3.999,1.788,3.999,3.999S278.225,332.008,276.014,332.008z"/>
			</g>
		</g>
		<g>
			<g>
				<path fill="#116FFF" d="M108.016,332.008H36.04c-2.211,0-4-1.789-4-4s1.789-3.999,4-3.999h71.976c2.211,0,4,1.788,4,3.999
					S110.227,332.008,108.016,332.008z"/>
			</g>
		</g>
		<g>
			<g>
				<path fill="#116FFF" d="M200.35,313.65c-1.566,0-3.058-0.93-3.694-2.469c-0.844-2.039,0.125-4.382,2.163-5.226l66.54-27.561
					c2.054-0.851,4.374,0.125,5.226,2.164c0.844,2.039-0.125,4.383-2.164,5.227l-66.539,27.56
					C201.381,313.557,200.861,313.65,200.35,313.65z"/>
			</g>
		</g>
		<g>
			<g>
				<path fill="#116FFF" d="M45.179,377.925c-1.565,0-3.058-0.93-3.694-2.469c-0.844-2.039,0.125-4.383,2.164-5.227l66.508-27.551
					c2.035-0.852,4.383,0.125,5.227,2.163c0.844,2.039-0.125,4.383-2.164,5.226L46.71,377.62
					C46.21,377.831,45.69,377.925,45.179,377.925z"/>
			</g>
		</g>
		<g>
			<g>
				<path fill="#116FFF" d="M189.944,298.089c-1.023,0-2.046-0.391-2.827-1.172c-1.562-1.562-1.562-4.093,0-5.655l50.932-50.932
					c1.562-1.562,4.094-1.562,5.655,0c1.562,1.562,1.562,4.093,0,5.655l-50.932,50.932
					C191.991,297.698,190.968,298.089,189.944,298.089z"/>
			</g>
		</g>
		<g>
			<g>
				<path fill="#116FFF" d="M71.192,416.85c-1.023,0-2.047-0.391-2.828-1.172c-1.562-1.562-1.562-4.093,0-5.655l50.916-50.924
					c1.562-1.562,4.094-1.562,5.656,0c1.562,1.562,1.562,4.093,0,5.655L74.02,415.678C73.238,416.459,72.215,416.85,71.192,416.85z"
					/>
			</g>
		</g>
		<g>
			<g>
				<path fill="#116FFF" d="M174.399,287.669c-0.512,0-1.031-0.094-1.531-0.305c-2.039-0.844-3.007-3.188-2.164-5.227l27.56-66.524
					c0.844-2.038,3.191-3.015,5.227-2.163c2.039,0.844,3.008,3.187,2.164,5.226l-27.56,66.524
					C177.458,286.739,175.966,287.669,174.399,287.669z"/>
			</g>
		</g>
		<g>
			<g>
				<path fill="#116FFF" d="M110.125,442.854c-0.512,0-1.031-0.094-1.531-0.305c-2.038-0.844-3.007-3.187-2.163-5.226l27.544-66.524
					c0.843-2.039,3.194-3.03,5.226-2.164c2.039,0.844,3.008,3.188,2.164,5.227l-27.544,66.523
					C113.184,441.925,111.691,442.854,110.125,442.854z"/>
			</g>
		</g>
		<g>
			<g>
				<path fill="#116FFF" d="M156.011,363.988c-19.85,0-35.996-16.146-35.996-35.996s16.146-35.996,35.996-35.996
					s35.996,16.146,35.996,35.996S175.86,363.988,156.011,363.988z M156.011,299.995c-15.436,0-27.997,12.562-27.997,27.997
					s12.562,27.997,27.997,27.997s27.997-12.562,27.997-27.997S171.446,299.995,156.011,299.995z"/>
			</g>
		</g>
	</g>
</g>
</svg>
