<svg xmlns="http://www.w3.org/2000/svg" width="128" height="128" viewBox="0 0 128 128">
  <title>EUKARYOTE</title>
  <g>
    <g>
      <path d="M38.549,40.3a1.741,1.741,0,0,1-1.237-.513L31.327,33.8A1.75,1.75,0,0,1,33.8,31.327l5.984,5.985A1.75,1.75,0,0,1,38.549,40.3Z" fill="#5C9EFF"/>
      <path d="M75.172,54.579a1.751,1.751,0,0,1-1.237-2.988l5.984-5.985a1.75,1.75,0,0,1,2.475,2.475l-5.985,5.985A1.743,1.743,0,0,1,75.172,54.579Z" fill="#5C9EFF"/>
      <path d="M58.656,34.234a1.751,1.751,0,0,1-1.667-2.282l2.571-8.064a1.75,1.75,0,1,1,3.334,1.063l-2.571,8.064A1.749,1.749,0,0,1,58.656,34.234Z" fill="#5C9EFF"/>
      <path d="M47.432,34.1a1.751,1.751,0,0,1-1.744-1.616l-.646-8.439a1.75,1.75,0,1,1,3.49-.268l.647,8.439A1.751,1.751,0,0,1,47.567,34.1C47.521,34.1,47.477,34.1,47.432,34.1Z" fill="#5C9EFF"/>
      <path d="M67.461,41.684a1.751,1.751,0,0,1-1.31-2.91l5.608-6.339a1.75,1.75,0,1,1,2.621,2.319l-5.608,6.339A1.744,1.744,0,0,1,67.461,41.684Z" fill="#5C9EFF"/>
    </g>
    <g>
      <path d="M38.549,40.3a1.741,1.741,0,0,1-1.237-.513L31.327,33.8A1.75,1.75,0,0,1,33.8,31.327l5.984,5.985A1.75,1.75,0,0,1,38.549,40.3Z" fill="#5C9EFF"/>
      <path d="M46.844,82.906a1.75,1.75,0,0,1-1.238-2.987l5.985-5.985a1.75,1.75,0,0,1,2.474,2.475l-5.984,5.985A1.746,1.746,0,0,1,46.844,82.906Z" fill="#5C9EFF"/>
      <path d="M24.419,62.977a1.75,1.75,0,0,1-.531-3.418l8.064-2.57a1.75,1.75,0,0,1,1.063,3.335l-8.065,2.57A1.755,1.755,0,0,1,24.419,62.977Z" fill="#5C9EFF"/>
      <path d="M32.352,49.183c-.045,0-.09,0-.136-.005l-8.439-.646a1.75,1.75,0,1,1,.268-3.49l8.438.646a1.75,1.75,0,0,1-.131,3.495Z" fill="#5C9EFF"/>
      <path d="M33.6,74.819a1.75,1.75,0,0,1-1.16-3.061l6.338-5.607a1.75,1.75,0,0,1,2.319,2.622L34.754,74.38A1.739,1.739,0,0,1,33.6,74.819Z" fill="#5C9EFF"/>
    </g>
    <g>
      <path d="M95.436,97.186a1.744,1.744,0,0,1-1.238-.513l-5.984-5.985a1.749,1.749,0,1,1,2.474-2.474L96.673,94.2a1.751,1.751,0,0,1-1.237,2.988Z" fill="#5C9EFF"/>
      <path d="M46.844,82.906a1.75,1.75,0,0,1-1.238-2.987l5.985-5.985a1.75,1.75,0,0,1,2.474,2.475l-5.984,5.985A1.746,1.746,0,0,1,46.844,82.906Z" fill="#5C9EFF"/>
      <path d="M66.773,105.331a1.751,1.751,0,0,1-1.667-2.282l2.571-8.064a1.75,1.75,0,1,1,3.334,1.063l-2.571,8.064A1.748,1.748,0,0,1,66.773,105.331Z" fill="#5C9EFF"/>
      <path d="M81.211,105.839a1.75,1.75,0,0,1-1.743-1.616l-.647-8.439a1.751,1.751,0,0,1,3.491-.268l.646,8.439a1.75,1.75,0,0,1-1.611,1.879C81.3,105.837,81.256,105.839,81.211,105.839Z" fill="#5C9EFF"/>
      <path d="M54.93,96.156a1.75,1.75,0,0,1-1.31-2.91l5.608-6.339a1.75,1.75,0,0,1,2.621,2.319l-5.608,6.339A1.744,1.744,0,0,1,54.93,96.156Z" fill="#5C9EFF"/>
    </g>
    <g>
      <path d="M95.436,97.186a1.744,1.744,0,0,1-1.238-.513l-5.984-5.985a1.749,1.749,0,1,1,2.474-2.474L96.673,94.2a1.751,1.751,0,0,1-1.237,2.988Z" fill="#5C9EFF"/>
      <path d="M75.172,54.579a1.751,1.751,0,0,1-1.237-2.988l5.984-5.985a1.75,1.75,0,0,1,2.475,2.475l-5.985,5.985A1.743,1.743,0,0,1,75.172,54.579Z" fill="#5C9EFF"/>
      <path d="M95.517,71.094a1.751,1.751,0,0,1-.532-3.418l8.065-2.57a1.75,1.75,0,0,1,1.062,3.335l-8.064,2.57A1.76,1.76,0,0,1,95.517,71.094Z" fill="#5C9EFF"/>
      <path d="M104.091,82.963c-.045,0-.09,0-.136,0l-8.438-.646a1.75,1.75,0,1,1,.267-3.49l8.439.646a1.75,1.75,0,0,1-.132,3.495Z" fill="#5C9EFF"/>
      <path d="M88.067,62.288a1.75,1.75,0,0,1-1.16-3.061l6.339-5.607a1.75,1.75,0,1,1,2.318,2.622l-6.338,5.607A1.746,1.746,0,0,1,88.067,62.288Z" fill="#5C9EFF"/>
    </g>
    <path d="M70.785,46.187A19.466,19.466,0,1,0,46.42,70.86a16.771,16.771,0,0,1,10.8,10.953A19.465,19.465,0,1,0,81.58,57.139,16.767,16.767,0,0,1,70.785,46.187Z" fill="#5C9EFF"/>
    <path d="M84.735,84.737a13.537,13.537,0,0,1-1.127,1.006,12.788,12.788,0,0,1-20.059-6.014A23.575,23.575,0,0,0,48.423,64.5a12.562,12.562,0,0,1-5.159-3.138,12.812,12.812,0,0,1,0-18.1,13.537,13.537,0,0,1,1.127-1.006,12.788,12.788,0,0,1,20.059,6.014A23.573,23.573,0,0,0,79.577,63.5a12.582,12.582,0,0,1,5.159,3.139,12.8,12.8,0,0,1,0,18.1Z" fill="#95edf7"/>
    <g>
      <circle cx="52.367" cy="52.9" r="4.666" fill="#fff"/>
      <circle cx="63.734" cy="64.266" r="4.666" fill="#fff"/>
      <circle cx="75.1" cy="75.633" r="4.666" fill="#fff"/>
    </g>
  </g>
</svg>
